<svg id="svg" version="1.1" xmlns="http://www.w3.org/2000/svg" xmlns:xlink="http://www.w3.org/1999/xlink" width="400" height="369.00000000000006" viewBox="0, 0, 400,369.00000000000006"><g id="svgg"><path id="path0" d="M201.107 0.558 C 199.788 0.827,198.210 1.289,197.601 1.585 C 196.993 1.880,195.623 2.505,194.557 2.972 C 193.492 3.439,192.620 3.942,192.620 4.089 C 192.620 4.236,192.122 4.530,191.513 4.742 C 190.904 4.954,190.406 5.291,190.406 5.491 C 190.406 5.691,190.115 5.948,189.760 6.062 C 188.914 6.334,184.661 10.433,183.033 12.546 C 182.329 13.459,181.658 14.290,181.542 14.391 C 181.425 14.493,180.854 15.406,180.273 16.421 C 179.691 17.435,179.108 18.349,178.978 18.450 C 178.847 18.552,178.515 19.216,178.239 19.926 C 177.964 20.637,177.517 21.480,177.246 21.800 C 176.974 22.121,176.753 22.667,176.753 23.014 C 176.753 23.362,176.425 24.288,176.025 25.073 C 175.624 25.858,175.184 27.221,175.046 28.103 C 174.908 28.984,174.662 29.793,174.499 29.901 C 174.335 30.009,174.020 31.338,173.798 32.853 C 173.577 34.369,173.241 35.941,173.053 36.347 C 172.021 38.570,171.744 48.681,172.023 73.985 C 172.064 77.638,171.983 81.707,171.845 83.026 C 170.951 91.561,170.739 93.212,170.498 93.542 C 170.350 93.745,170.021 95.115,169.767 96.587 C 169.513 98.058,169.181 99.262,169.029 99.262 C 168.877 99.262,168.533 100.175,168.266 101.292 C 167.998 102.408,167.639 103.321,167.469 103.321 C 167.298 103.321,167.159 103.501,167.159 103.722 C 167.159 104.359,164.834 108.856,164.505 108.856 C 164.341 108.856,164.207 109.036,164.207 109.256 C 164.207 109.749,161.042 113.860,159.779 115.008 C 156.997 117.537,155.803 118.489,154.889 118.906 C 154.331 119.160,153.875 119.487,153.875 119.632 C 153.875 119.778,153.210 120.096,152.399 120.339 C 151.587 120.582,150.923 120.904,150.923 121.055 C 150.923 121.205,150.051 121.533,148.985 121.783 C 147.920 122.033,146.815 122.423,146.530 122.650 C 145.829 123.208,130.709 123.225,130.337 122.668 C 130.192 122.451,128.870 122.062,127.399 121.804 C 125.927 121.546,124.723 121.207,124.723 121.050 C 124.723 120.893,123.727 120.554,122.509 120.295 C 121.292 120.037,120.295 119.695,120.295 119.536 C 120.295 119.377,119.756 119.130,119.096 118.988 C 118.436 118.845,116.550 118.084,114.904 117.298 C 113.257 116.511,111.721 115.867,111.490 115.867 C 111.259 115.867,111.070 115.708,111.070 115.513 C 111.070 115.318,110.406 114.960,109.594 114.717 C 108.782 114.473,108.118 114.161,108.118 114.022 C 108.118 113.883,107.454 113.571,106.642 113.328 C 105.830 113.085,105.166 112.753,105.166 112.590 C 105.166 112.428,104.502 112.076,103.690 111.808 C 102.878 111.540,102.214 111.182,102.214 111.011 C 102.214 110.841,101.973 110.701,101.679 110.701 C 101.385 110.701,99.018 109.691,96.421 108.457 C 89.509 105.173,88.864 104.894,87.546 104.619 C 86.887 104.482,86.347 104.231,86.347 104.062 C 86.347 103.893,85.658 103.639,84.816 103.496 C 83.974 103.354,82.770 103.023,82.141 102.761 C 81.511 102.499,80.166 102.164,79.151 102.018 C 78.137 101.872,77.119 101.603,76.889 101.421 C 75.717 100.490,59.371 100.462,58.203 101.389 C 57.953 101.587,57.085 101.862,56.273 102.001 C 54.522 102.300,50.923 103.710,50.923 104.098 C 50.923 104.247,50.425 104.479,49.818 104.612 C 49.210 104.746,48.587 105.050,48.434 105.288 C 48.281 105.526,47.657 105.970,47.048 106.274 C 44.809 107.392,39.260 113.622,38.587 115.775 C 38.444 116.232,38.188 116.605,38.019 116.605 C 37.850 116.605,37.508 117.477,37.258 118.542 C 37.008 119.608,36.618 120.713,36.391 120.998 C 35.818 121.716,35.823 132.771,36.396 133.132 C 36.626 133.276,37.011 134.350,37.252 135.517 C 37.493 136.684,37.819 137.638,37.975 137.638 C 38.132 137.638,38.459 138.303,38.702 139.114 C 38.945 139.926,39.263 140.590,39.408 140.590 C 39.553 140.590,39.894 141.091,40.164 141.702 C 40.435 142.313,41.140 143.297,41.730 143.888 C 42.321 144.478,42.804 145.088,42.804 145.242 C 42.804 145.397,43.676 146.331,44.742 147.318 C 47.475 149.849,47.522 149.887,50.185 151.694 C 51.504 152.589,52.666 153.422,52.768 153.546 C 52.869 153.669,53.575 153.993,54.336 154.266 C 55.097 154.538,55.720 154.893,55.720 155.056 C 55.720 155.218,55.916 155.351,56.157 155.351 C 56.397 155.351,57.269 155.668,58.094 156.057 C 61.701 157.755,63.275 158.377,64.439 158.566 C 65.123 158.677,65.683 158.890,65.683 159.038 C 65.683 159.187,66.720 159.509,67.989 159.755 C 69.257 160.000,70.579 160.352,70.927 160.537 C 71.274 160.722,72.727 161.067,74.155 161.303 C 75.584 161.539,76.753 161.849,76.753 161.993 C 76.753 162.137,78.247 162.469,80.074 162.731 C 81.900 162.992,83.395 163.329,83.395 163.478 C 83.395 163.628,84.723 163.966,86.347 164.229 C 87.970 164.493,89.299 164.824,89.299 164.964 C 89.299 165.104,89.996 165.331,90.849 165.467 C 91.701 165.603,92.580 165.865,92.801 166.049 C 93.022 166.232,93.860 166.545,94.664 166.743 C 96.477 167.192,100.489 168.698,100.738 169.024 C 100.839 169.157,101.545 169.469,102.306 169.717 C 103.067 169.965,103.690 170.301,103.690 170.464 C 103.690 170.626,104.230 170.977,104.889 171.244 C 105.549 171.510,106.221 171.945,106.384 172.211 C 106.546 172.476,106.906 172.694,107.183 172.694 C 107.461 172.694,107.743 172.820,107.811 172.973 C 107.878 173.127,108.681 173.828,109.594 174.532 C 110.507 175.236,111.338 175.921,111.439 176.055 C 112.799 177.850,113.535 178.785,113.850 179.117 C 114.566 179.873,116.131 182.839,116.398 183.945 C 116.544 184.551,116.858 185.168,117.096 185.315 C 117.831 185.769,117.644 194.394,116.870 195.756 C 116.524 196.365,116.240 196.999,116.238 197.165 C 116.230 198.286,111.888 202.695,110.148 203.349 C 109.539 203.577,108.642 203.955,108.154 204.189 C 106.882 204.797,102.977 204.639,101.661 203.925 C 101.052 203.596,100.341 203.325,100.081 203.323 C 99.821 203.322,99.512 203.072,99.395 202.768 C 99.279 202.463,98.971 202.214,98.713 202.214 C 98.454 202.214,97.775 201.591,97.204 200.830 C 96.632 200.069,96.043 199.361,95.896 199.257 C 95.748 199.153,95.434 198.240,95.199 197.228 C 94.965 196.216,94.587 195.004,94.360 194.534 C 94.050 193.895,94.058 193.503,94.390 192.971 C 95.140 191.771,94.923 190.634,93.849 190.136 C 91.168 188.891,62.121 188.756,61.265 189.984 C 61.158 190.138,59.244 190.482,57.011 190.748 C 54.779 191.014,52.869 191.358,52.768 191.512 C 52.666 191.666,51.670 191.914,50.554 192.062 C 49.437 192.210,47.528 192.648,46.310 193.036 C 45.092 193.424,42.934 194.111,41.513 194.564 C 40.092 195.017,38.847 195.486,38.745 195.607 C 38.644 195.728,38.065 195.949,37.460 196.097 C 36.854 196.246,35.479 196.770,34.404 197.261 C 33.330 197.753,32.289 198.155,32.092 198.155 C 31.895 198.155,31.734 198.288,31.734 198.450 C 31.734 198.612,31.112 198.968,30.351 199.240 C 29.589 199.512,28.884 199.836,28.782 199.960 C 28.681 200.083,27.806 200.583,26.838 201.070 C 25.137 201.925,21.900 204.121,20.572 205.321 C 20.217 205.642,19.770 205.904,19.578 205.904 C 19.387 205.904,19.013 206.195,18.748 206.550 C 18.483 206.905,17.639 207.664,16.873 208.236 C 14.070 210.329,9.550 215.522,7.017 219.557 C 6.317 220.673,5.637 221.670,5.507 221.771 C 5.377 221.873,5.047 222.578,4.775 223.339 C 4.503 224.101,4.147 224.723,3.985 224.723 C 3.823 224.723,3.690 224.900,3.690 225.116 C 3.690 225.332,3.275 226.416,2.768 227.525 C 2.260 228.635,1.845 229.753,1.845 230.011 C 1.845 230.269,1.686 230.639,1.492 230.833 C -0.348 232.673,-0.363 253.200,1.476 253.813 C 1.679 253.881,1.845 254.217,1.845 254.561 C 1.845 254.905,2.088 255.534,2.385 255.958 C 2.683 256.382,2.821 256.834,2.693 256.963 C 2.565 257.091,2.654 257.196,2.891 257.196 C 3.127 257.196,3.321 257.419,3.321 257.692 C 3.321 257.965,3.736 258.670,4.243 259.260 C 4.750 259.850,5.165 260.441,5.166 260.573 C 5.167 261.088,8.063 264.220,9.990 265.790 C 10.686 266.357,11.753 267.229,12.362 267.727 C 12.970 268.226,13.676 268.634,13.930 268.634 C 14.184 268.634,14.391 268.790,14.391 268.980 C 14.391 269.170,14.972 269.535,15.683 269.792 C 16.393 270.049,16.974 270.370,16.974 270.506 C 16.974 270.642,17.721 270.962,18.635 271.218 C 19.548 271.473,20.295 271.809,20.295 271.963 C 20.295 272.117,20.918 272.359,21.679 272.501 C 22.440 272.643,23.234 272.901,23.443 273.073 C 23.652 273.246,25.312 273.577,27.133 273.810 C 28.953 274.043,31.041 274.403,31.771 274.611 C 34.565 275.406,48.439 273.551,51.292 272.000 C 51.596 271.835,52.717 271.477,53.782 271.204 C 54.848 270.932,55.720 270.588,55.720 270.439 C 55.720 270.291,56.222 270.059,56.837 269.924 C 57.451 269.789,59.485 268.863,61.357 267.867 C 63.229 266.870,65.175 265.849,65.683 265.596 C 66.190 265.344,66.825 264.928,67.093 264.672 C 67.361 264.416,67.792 264.207,68.051 264.207 C 68.310 264.207,68.905 263.875,69.373 263.469 C 69.841 263.063,70.435 262.731,70.694 262.731 C 70.953 262.731,71.384 262.516,71.653 262.253 C 72.040 261.875,76.528 259.591,83.026 256.467 C 83.330 256.321,84.493 255.974,85.609 255.696 C 86.725 255.418,87.756 255.020,87.899 254.813 C 88.827 253.471,102.503 254.846,103.690 256.400 C 103.791 256.533,104.207 256.854,104.613 257.114 C 105.018 257.373,105.766 257.855,106.273 258.184 C 106.780 258.513,107.879 259.633,108.713 260.673 C 110.025 262.306,110.644 263.437,112.569 267.712 C 113.949 270.777,113.939 282.644,112.555 285.793 C 112.376 286.199,112.028 287.445,111.781 288.561 C 111.534 289.677,111.217 290.673,111.077 290.775 C 110.937 290.876,110.641 291.624,110.419 292.435 C 109.874 294.427,108.723 297.558,108.452 297.786 C 108.331 297.887,108.110 298.466,107.962 299.072 C 107.813 299.677,107.289 301.052,106.798 302.127 C 106.306 303.202,105.904 304.292,105.904 304.550 C 105.904 304.808,105.758 305.176,105.580 305.369 C 105.401 305.562,105.058 306.384,104.816 307.196 C 104.574 308.007,104.227 309.004,104.043 309.410 C 103.346 310.954,102.505 313.538,102.122 315.314 C 101.904 316.328,101.604 317.242,101.457 317.343 C 101.115 317.579,100.369 322.369,100.369 324.333 C 100.369 325.156,100.203 325.830,100.000 325.830 C 99.545 325.830,99.495 332.714,99.948 332.994 C 100.123 333.102,100.381 334.470,100.523 336.035 C 100.665 337.600,101.103 339.588,101.498 340.453 C 101.892 341.318,102.214 342.210,102.214 342.434 C 102.214 342.818,103.533 345.429,104.161 346.287 C 104.319 346.503,104.981 347.509,105.633 348.524 C 107.030 350.698,111.775 355.720,112.433 355.720 C 112.684 355.720,113.067 356.052,113.284 356.458 C 113.501 356.863,113.841 357.196,114.039 357.196 C 114.237 357.196,115.226 357.777,116.236 358.487 C 117.247 359.197,118.242 359.779,118.448 359.779 C 118.654 359.779,119.441 360.110,120.198 360.516 C 120.954 360.921,122.116 361.355,122.779 361.480 C 123.443 361.604,123.985 361.833,123.985 361.989 C 123.985 363.332,141.167 363.369,142.058 362.028 C 142.164 361.868,142.749 361.617,143.358 361.471 C 144.398 361.221,148.305 359.446,148.708 359.040 C 148.810 358.938,149.628 358.356,150.525 357.748 C 152.332 356.524,156.372 352.560,157.858 350.554 C 158.384 349.843,158.990 349.092,159.204 348.884 C 159.720 348.385,160.378 347.336,161.165 345.756 C 161.519 345.046,161.914 344.382,162.044 344.280 C 162.398 344.003,164.576 339.291,164.576 338.802 C 164.576 338.568,164.721 338.376,164.900 338.376 C 165.078 338.376,165.398 337.754,165.611 336.993 C 166.074 335.341,167.044 332.577,167.522 331.550 C 167.711 331.144,168.046 330.065,168.266 329.151 C 168.486 328.238,168.820 327.159,169.009 326.753 C 169.198 326.347,169.617 324.935,169.940 323.616 C 170.263 322.297,170.790 320.138,171.111 318.819 C 171.432 317.500,171.820 316.338,171.974 316.236 C 172.127 316.135,172.371 315.263,172.515 314.299 C 172.659 313.335,172.902 312.546,173.054 312.546 C 173.206 312.546,173.542 311.550,173.801 310.332 C 174.059 309.114,174.393 308.118,174.543 308.118 C 174.693 308.118,174.916 307.617,175.038 307.005 C 175.160 306.393,175.679 305.007,176.191 303.925 C 176.703 302.843,177.122 301.767,177.122 301.533 C 177.122 301.299,177.281 301.107,177.476 301.107 C 177.671 301.107,178.029 300.443,178.272 299.631 C 178.516 298.819,178.834 298.155,178.980 298.155 C 179.127 298.155,179.462 297.635,179.725 297.000 C 179.988 296.365,180.547 295.492,180.969 295.060 C 181.390 294.628,182.232 293.627,182.841 292.834 C 183.450 292.041,184.431 290.963,185.021 290.438 C 185.611 289.913,186.689 288.947,187.416 288.292 C 188.144 287.637,189.197 286.911,189.757 286.679 C 190.317 286.447,190.775 286.111,190.775 285.933 C 190.775 285.755,190.943 285.609,191.148 285.609 C 191.353 285.609,192.225 285.288,193.085 284.895 C 195.711 283.696,197.428 283.399,201.738 283.397 C 205.907 283.395,211.310 283.985,211.993 284.517 C 212.196 284.675,213.026 284.922,213.838 285.066 C 214.649 285.210,215.812 285.547,216.421 285.815 C 217.030 286.084,218.233 286.486,219.096 286.708 C 219.958 286.931,220.664 287.273,220.664 287.468 C 220.664 287.663,220.924 287.823,221.241 287.823 C 221.865 287.823,225.898 289.630,226.199 290.045 C 226.301 290.185,227.006 290.502,227.768 290.750 C 228.529 290.998,229.151 291.344,229.151 291.518 C 229.151 291.692,229.732 292.044,230.443 292.301 C 231.153 292.558,231.734 292.881,231.734 293.018 C 231.734 293.156,232.232 293.475,232.841 293.727 C 233.450 293.979,233.948 294.320,233.948 294.485 C 233.948 294.649,234.265 294.885,234.653 295.008 C 235.040 295.131,235.912 295.717,236.590 296.310 C 237.268 296.903,238.236 297.602,238.742 297.864 C 239.247 298.125,240.113 298.796,240.666 299.354 C 241.220 299.912,241.814 300.369,241.987 300.369 C 242.161 300.369,242.637 300.743,243.046 301.199 C 243.455 301.656,244.208 302.362,244.720 302.768 C 248.916 306.096,256.886 314.014,263.662 321.587 C 267.504 325.880,269.932 328.493,272.417 331.007 C 273.990 332.599,275.277 334.012,275.277 334.147 C 275.277 334.467,286.675 345.752,289.424 348.155 C 290.585 349.170,292.189 350.581,292.987 351.292 C 293.786 352.002,295.038 352.998,295.771 353.506 C 296.503 354.013,297.381 354.683,297.721 354.994 C 298.388 355.604,301.093 357.516,302.140 358.118 C 302.494 358.321,303.303 358.861,303.939 359.317 C 304.575 359.774,305.264 360.148,305.469 360.148 C 305.674 360.148,305.898 360.293,305.966 360.470 C 306.128 360.896,310.295 363.100,310.938 363.100 C 311.213 363.100,311.439 363.253,311.439 363.440 C 311.439 363.627,312.062 363.983,312.823 364.231 C 313.584 364.480,314.290 364.796,314.391 364.936 C 314.493 365.075,315.904 365.646,317.528 366.205 C 319.151 366.765,320.756 367.367,321.095 367.543 C 324.468 369.305,346.125 369.248,346.125 367.477 C 346.125 367.302,346.414 367.159,346.766 367.159 C 347.481 367.159,351.407 365.285,351.599 364.852 C 351.667 364.700,351.916 364.573,352.153 364.571 C 353.576 364.554,361.010 356.997,361.494 355.074 C 361.609 354.617,361.852 354.244,362.033 354.244 C 362.214 354.244,362.362 354.076,362.362 353.871 C 362.362 353.665,362.691 352.794,363.094 351.933 C 364.836 348.213,365.130 331.734,363.454 331.734 C 363.304 331.734,363.065 331.112,362.923 330.351 C 362.780 329.589,362.328 328.220,361.917 327.306 C 360.099 323.263,359.267 321.574,359.008 321.399 C 358.855 321.295,358.613 320.742,358.469 320.169 C 358.325 319.597,357.980 319.041,357.702 318.934 C 357.423 318.828,357.196 318.504,357.196 318.215 C 357.196 317.926,356.975 317.604,356.705 317.501 C 356.435 317.397,355.989 316.738,355.714 316.036 C 355.438 315.334,355.110 314.760,354.984 314.760 C 354.858 314.760,353.942 313.639,352.947 312.269 C 351.953 310.899,350.800 309.422,350.385 308.987 C 349.971 308.551,347.804 306.241,345.572 303.853 C 343.339 301.465,339.627 297.587,337.323 295.235 C 335.018 292.884,332.694 290.388,332.157 289.690 C 331.620 288.991,330.849 288.057,330.443 287.614 C 330.037 287.171,329.253 286.248,328.701 285.563 C 328.150 284.878,327.366 283.924,326.960 283.443 C 326.553 282.963,326.122 282.257,326.001 281.875 C 325.880 281.493,325.635 281.181,325.457 281.181 C 325.278 281.181,324.916 280.777,324.651 280.283 C 324.386 279.789,323.547 278.309,322.786 276.994 C 322.025 275.679,321.402 274.423,321.402 274.202 C 321.402 273.981,321.262 273.801,321.092 273.801 C 320.921 273.801,320.572 273.095,320.316 272.232 C 320.059 271.370,319.720 270.498,319.562 270.295 C 319.403 270.092,319.152 269.345,319.004 268.635 C 318.855 267.924,318.585 267.157,318.403 266.930 C 317.240 265.482,317.293 252.736,318.471 250.586 C 318.939 249.731,320.664 245.767,320.664 245.546 C 320.664 245.306,322.124 243.243,322.970 242.287 C 323.326 241.886,323.616 241.431,323.616 241.276 C 323.616 240.667,328.045 236.900,328.761 236.900 C 328.976 236.900,329.151 236.769,329.151 236.608 C 329.151 236.448,330.065 235.854,331.181 235.289 C 332.297 234.724,333.210 234.139,333.210 233.990 C 333.210 233.841,334.041 233.506,335.055 233.246 C 336.070 232.986,336.900 232.645,336.900 232.489 C 336.900 232.332,337.897 231.993,339.114 231.734 C 340.332 231.476,341.328 231.141,341.328 230.990 C 341.328 230.839,342.657 230.499,344.280 230.236 C 345.904 229.972,347.232 229.644,347.232 229.506 C 347.232 229.369,348.726 229.052,350.552 228.803 C 352.377 228.553,353.952 228.217,354.052 228.056 C 354.152 227.894,355.315 227.647,356.637 227.505 C 357.959 227.363,359.041 227.121,359.041 226.967 C 359.041 226.813,360.452 226.468,362.177 226.199 C 363.902 225.931,365.314 225.603,365.314 225.469 C 365.314 225.336,366.393 225.013,367.712 224.751 C 369.031 224.489,370.111 224.147,370.111 223.991 C 370.111 223.836,370.609 223.609,371.218 223.487 C 371.827 223.365,373.063 222.929,373.965 222.518 C 374.867 222.107,375.769 221.771,375.968 221.771 C 376.168 221.771,376.555 221.564,376.828 221.310 C 377.102 221.056,378.112 220.451,379.074 219.964 C 380.037 219.477,381.278 218.689,381.833 218.212 C 382.387 217.735,382.965 217.344,383.116 217.344 C 383.462 217.343,389.325 211.455,389.938 210.492 C 390.188 210.100,390.808 209.152,391.317 208.385 C 391.826 207.619,392.345 206.581,392.471 206.079 C 392.597 205.577,392.841 205.166,393.014 205.166 C 393.187 205.166,393.527 204.502,393.771 203.690 C 394.014 202.878,394.326 202.214,394.465 202.214 C 394.603 202.214,394.921 201.301,395.171 200.185 C 395.420 199.068,395.758 198.155,395.920 198.155 C 396.083 198.155,396.327 197.458,396.463 196.605 C 396.600 195.753,396.872 194.862,397.067 194.626 C 397.263 194.390,397.594 193.220,397.803 192.025 C 398.012 190.830,398.335 189.520,398.520 189.114 C 400.410 184.971,400.394 157.476,398.500 155.554 C 398.310 155.361,398.155 154.890,398.155 154.508 C 398.155 153.610,396.542 148.946,395.580 147.062 C 395.170 146.258,394.834 145.400,394.834 145.156 C 394.834 144.911,394.709 144.656,394.557 144.588 C 394.405 144.520,393.733 143.410,393.064 142.120 C 391.656 139.406,389.988 136.989,388.284 135.190 C 387.625 134.493,387.085 133.787,387.085 133.621 C 387.085 133.335,384.513 130.838,382.090 128.772 C 378.819 125.983,371.900 122.002,369.562 121.563 C 368.849 121.430,368.266 121.201,368.266 121.056 C 368.266 120.747,364.917 119.926,363.656 119.926 C 363.181 119.926,362.737 119.764,362.669 119.566 C 362.331 118.576,341.616 118.538,340.967 119.527 C 340.861 119.688,339.460 120.013,337.852 120.249 C 336.245 120.485,334.750 120.823,334.531 120.999 C 334.312 121.176,333.178 121.531,332.011 121.789 C 330.844 122.047,329.889 122.379,329.889 122.527 C 329.889 122.675,329.267 122.913,328.506 123.055 C 327.744 123.198,326.425 123.631,325.574 124.019 C 324.722 124.406,323.903 124.723,323.753 124.723 C 323.603 124.723,322.722 125.071,321.795 125.497 C 320.869 125.922,319.613 126.493,319.004 126.764 C 316.676 127.803,312.264 129.838,309.934 130.947 C 308.599 131.583,307.312 132.103,307.074 132.103 C 306.837 132.103,306.642 132.258,306.642 132.447 C 306.642 132.637,306.268 132.899,305.812 133.030 C 305.355 133.162,303.155 134.159,300.923 135.246 C 295.877 137.702,292.707 139.114,292.240 139.114 C 292.043 139.114,291.882 139.246,291.882 139.407 C 291.882 139.568,291.259 139.886,290.498 140.112 C 288.336 140.757,285.443 141.858,285.240 142.114 C 285.138 142.242,284.101 142.559,282.934 142.819 C 281.767 143.078,280.812 143.413,280.812 143.563 C 280.812 143.713,279.694 144.030,278.328 144.268 C 276.962 144.506,275.675 144.832,275.468 144.993 C 273.768 146.316,254.071 146.367,253.137 145.051 C 253.035 144.908,251.997 144.566,250.830 144.292 C 249.663 144.018,248.708 143.672,248.708 143.524 C 248.708 143.375,248.262 143.141,247.716 143.004 C 244.558 142.212,239.114 137.960,236.120 133.948 C 235.135 132.629,234.161 131.349,233.955 131.104 C 233.748 130.859,233.579 130.551,233.579 130.420 C 233.579 130.288,233.192 129.410,232.719 128.467 C 232.246 127.524,231.735 126.256,231.583 125.649 C 231.431 125.043,231.171 124.461,231.006 124.358 C 230.840 124.254,230.502 122.841,230.254 121.218 C 230.006 119.594,229.649 117.930,229.460 117.520 C 228.587 115.624,229.945 96.250,230.998 95.572 C 231.156 95.470,231.492 94.101,231.745 92.528 C 231.998 90.955,232.329 89.668,232.481 89.668 C 232.633 89.668,232.961 88.589,233.210 87.269 C 233.459 85.950,233.792 84.871,233.949 84.871 C 234.106 84.871,234.346 84.248,234.482 83.487 C 234.618 82.726,235.052 81.225,235.446 80.152 C 235.840 79.079,236.162 77.875,236.162 77.477 C 236.162 77.079,236.306 76.753,236.481 76.753 C 236.656 76.753,237.011 75.756,237.269 74.539 C 237.528 73.321,237.856 72.325,237.999 72.325 C 238.141 72.325,238.477 71.162,238.745 69.742 C 239.013 68.321,239.346 67.159,239.484 67.159 C 239.622 67.159,239.942 66.204,240.195 65.037 C 240.448 63.870,240.871 62.251,241.134 61.439 C 241.398 60.627,241.736 59.050,241.885 57.934 C 242.034 56.817,242.276 55.821,242.423 55.720 C 243.310 55.107,244.425 41.531,243.958 37.030 C 243.464 32.272,242.822 28.333,242.464 27.865 C 242.306 27.659,241.963 26.453,241.702 25.185 C 241.441 23.916,241.119 22.878,240.986 22.878 C 240.852 22.878,240.544 22.131,240.299 21.218 C 240.055 20.304,239.702 19.557,239.514 19.557 C 239.327 19.557,239.064 19.061,238.931 18.454 C 238.798 17.848,238.518 17.246,238.310 17.118 C 238.102 16.989,237.698 16.323,237.411 15.638 C 237.125 14.952,236.727 14.391,236.526 14.391 C 236.326 14.391,236.162 14.147,236.162 13.848 C 236.162 13.113,228.989 5.904,228.257 5.904 C 227.937 5.904,227.675 5.752,227.675 5.565 C 227.675 5.220,226.474 4.523,222.878 2.782 C 221.762 2.241,220.555 1.640,220.196 1.446 C 217.684 0.085,206.079 -0.455,201.107 0.558 M213.118 6.959 C 213.311 7.133,214.506 7.488,215.775 7.747 C 217.043 8.007,218.081 8.341,218.081 8.490 C 218.081 8.638,218.828 8.969,219.742 9.225 C 220.655 9.481,221.402 9.840,221.402 10.023 C 221.402 10.206,221.693 10.461,222.048 10.590 C 222.403 10.718,223.490 11.449,224.463 12.213 C 225.436 12.977,226.355 13.656,226.506 13.720 C 226.657 13.785,227.355 14.585,228.058 15.498 C 228.761 16.411,229.543 17.291,229.797 17.454 C 230.051 17.616,230.258 17.981,230.258 18.266 C 230.258 18.550,230.466 18.915,230.720 19.078 C 231.454 19.548,234.315 24.991,234.320 25.928 C 234.321 26.179,234.562 26.844,234.855 27.406 C 235.149 27.969,235.575 29.795,235.802 31.465 C 236.030 33.135,236.382 35.083,236.584 35.793 C 237.190 37.919,236.410 50.655,235.545 52.768 C 235.420 53.072,235.355 53.778,235.399 54.336 C 235.444 54.894,235.320 55.351,235.125 55.351 C 234.930 55.351,234.653 56.139,234.509 57.103 C 234.240 58.906,233.017 63.191,232.469 64.248 C 232.299 64.575,231.960 65.862,231.715 67.108 C 231.470 68.354,231.151 69.373,231.007 69.373 C 230.863 69.373,230.533 70.319,230.274 71.476 C 230.015 72.633,229.662 73.837,229.489 74.151 C 229.315 74.466,228.939 75.637,228.652 76.753 C 228.365 77.869,227.514 80.858,226.759 83.395 C 218.330 111.748,221.207 131.355,235.747 144.649 C 244.598 152.742,264.716 156.023,278.782 151.668 C 279.391 151.479,281.384 150.886,283.210 150.349 C 287.939 148.960,296.799 145.702,301.661 143.564 C 303.907 142.577,305.949 141.658,307.785 140.808 C 308.921 140.282,310.041 139.852,310.275 139.852 C 310.510 139.852,310.701 139.713,310.701 139.542 C 310.701 139.372,311.365 139.013,312.177 138.745 C 312.989 138.477,313.653 138.147,313.653 138.010 C 313.653 137.668,316.287 136.888,316.662 137.120 C 316.829 137.223,316.867 137.050,316.746 136.735 C 316.614 136.391,316.726 136.161,317.027 136.159 C 317.302 136.157,318.358 135.747,319.373 135.248 C 320.387 134.749,321.425 134.335,321.679 134.329 C 321.933 134.323,322.140 134.168,322.140 133.985 C 322.140 133.802,322.970 133.454,323.985 133.210 C 325.000 132.967,325.830 132.640,325.830 132.483 C 325.830 132.327,326.619 131.983,327.583 131.718 C 328.547 131.453,329.668 131.033,330.074 130.784 C 330.480 130.535,331.393 130.212,332.103 130.067 C 332.814 129.921,333.561 129.698,333.764 129.571 C 334.305 129.231,338.932 128.056,341.697 127.556 C 343.017 127.317,344.344 126.962,344.648 126.767 C 345.439 126.259,359.369 126.281,359.702 126.791 C 359.845 127.012,360.777 127.302,361.771 127.435 C 362.765 127.567,363.761 127.819,363.985 127.994 C 364.208 128.169,364.887 128.430,365.492 128.576 C 366.098 128.721,367.473 129.242,368.548 129.734 C 369.622 130.225,370.663 130.627,370.860 130.627 C 371.057 130.627,371.218 130.773,371.218 130.952 C 371.218 131.130,371.716 131.482,372.325 131.734 C 372.934 131.987,373.432 132.312,373.432 132.458 C 373.432 132.604,373.858 132.917,374.380 133.155 C 376.261 134.012,382.970 140.729,383.830 142.618 C 384.062 143.126,384.380 143.542,384.536 143.542 C 384.693 143.542,384.935 143.916,385.074 144.373 C 385.213 144.829,385.540 145.452,385.800 145.756 C 386.650 146.752,389.293 152.185,389.524 153.413 C 389.648 154.073,389.862 154.613,389.998 154.613 C 390.134 154.613,390.467 155.816,390.736 157.288 C 391.006 158.759,391.376 160.245,391.557 160.590 C 392.696 162.751,392.678 181.730,391.535 183.209 C 391.378 183.413,391.042 184.908,390.790 186.531 C 390.537 188.155,390.206 189.649,390.054 189.852 C 389.903 190.055,389.565 191.259,389.304 192.528 C 389.043 193.796,388.704 194.834,388.552 194.834 C 388.399 194.834,388.171 195.383,388.045 196.054 C 387.919 196.725,387.486 197.922,387.082 198.715 C 386.677 199.508,386.347 200.370,386.347 200.632 C 386.347 200.893,386.199 201.107,386.018 201.107 C 385.837 201.107,385.588 201.511,385.464 202.004 C 385.340 202.497,385.031 203.120,384.778 203.387 C 384.525 203.655,384.073 204.347,383.775 204.924 C 383.203 206.031,379.266 210.188,378.032 210.987 C 374.789 213.087,370.950 215.125,370.234 215.128 C 369.997 215.129,369.748 215.254,369.680 215.406 C 369.467 215.886,360.253 218.655,357.565 219.047 C 356.651 219.180,355.738 219.406,355.535 219.549 C 355.332 219.692,353.921 220.011,352.399 220.258 C 350.876 220.506,349.299 220.856,348.893 221.036 C 348.487 221.216,346.993 221.614,345.572 221.919 C 341.978 222.690,337.894 223.759,337.454 224.042 C 337.251 224.173,336.338 224.472,335.424 224.707 C 326.810 226.928,317.840 234.089,313.861 241.921 C 306.311 256.783,309.668 274.046,323.434 291.144 C 326.000 294.332,327.382 295.931,333.901 303.256 C 335.043 304.540,337.514 307.145,339.391 309.047 C 341.268 310.949,342.804 312.640,342.804 312.805 C 342.804 312.970,343.369 313.623,344.058 314.256 C 344.748 314.889,345.522 315.801,345.778 316.283 C 346.033 316.764,346.548 317.376,346.922 317.641 C 347.296 317.906,347.601 318.345,347.601 318.616 C 347.601 318.887,347.851 319.205,348.155 319.322 C 348.459 319.438,348.708 319.788,348.708 320.099 C 348.708 320.410,348.854 320.664,349.033 320.664 C 349.211 320.664,349.563 321.162,349.815 321.771 C 350.068 322.380,350.400 322.878,350.554 322.878 C 350.707 322.878,351.039 323.376,351.292 323.985 C 351.544 324.594,351.896 325.092,352.074 325.092 C 352.253 325.092,352.404 325.300,352.410 325.554 C 352.416 325.807,352.915 327.007,353.517 328.219 C 354.120 329.432,354.613 330.719,354.613 331.079 C 354.613 331.439,354.740 331.734,354.896 331.734 C 356.191 331.734,357.831 345.934,356.635 346.789 C 356.436 346.931,356.224 347.297,356.163 347.601 C 355.552 350.681,350.189 356.974,346.970 358.389 C 346.404 358.638,345.858 358.951,345.756 359.086 C 344.150 361.223,325.092 362.550,325.092 360.526 C 325.092 360.373,324.096 360.037,322.878 359.779 C 321.661 359.520,320.664 359.197,320.664 359.060 C 320.664 358.923,319.843 358.601,318.840 358.344 C 317.837 358.087,316.966 357.761,316.903 357.621 C 316.841 357.481,315.171 356.545,313.192 355.543 C 311.213 354.540,309.594 353.608,309.594 353.473 C 309.594 353.337,309.096 353.020,308.487 352.768 C 307.878 352.515,307.380 352.163,307.380 351.985 C 307.380 351.806,307.202 351.661,306.985 351.661 C 306.300 351.661,302.459 348.900,299.763 346.469 C 299.329 346.077,298.864 345.756,298.731 345.756 C 298.598 345.756,297.731 345.009,296.805 344.096 C 295.878 343.183,294.984 342.435,294.817 342.435 C 294.651 342.435,290.642 338.500,285.910 333.689 C 270.416 317.938,258.918 306.508,255.360 303.318 C 253.438 301.595,251.113 299.512,250.194 298.689 C 249.276 297.867,247.528 296.372,246.310 295.368 C 245.092 294.364,244.013 293.443,243.911 293.322 C 241.370 290.279,225.465 280.851,220.664 279.541 C 220.157 279.403,219.410 279.135,219.004 278.945 C 216.636 277.841,207.499 276.451,202.399 276.419 C 195.451 276.376,190.728 277.593,185.268 280.834 C 178.007 285.144,171.242 296.027,166.243 311.439 C 165.683 313.164,165.016 315.074,164.760 315.683 C 164.504 316.292,164.177 317.454,164.033 318.266 C 163.889 319.077,163.635 319.908,163.468 320.111 C 163.302 320.314,162.948 321.559,162.683 322.878 C 162.418 324.197,162.096 325.360,161.966 325.461 C 161.837 325.563,161.518 326.542,161.259 327.637 C 160.999 328.731,160.570 330.045,160.305 330.555 C 160.040 331.065,159.716 332.121,159.584 332.900 C 159.452 333.680,159.215 334.317,159.056 334.317 C 158.897 334.317,158.558 335.065,158.303 335.978 C 158.047 336.891,157.711 337.638,157.557 337.638 C 157.402 337.638,157.164 338.085,157.027 338.631 C 156.890 339.176,156.456 340.074,156.064 340.625 C 155.672 341.176,155.351 341.733,155.351 341.862 C 155.351 341.992,155.175 342.298,154.960 342.543 C 154.745 342.788,154.249 343.487,153.858 344.096 C 152.484 346.236,152.197 346.592,150.178 348.664 C 149.057 349.814,147.314 351.332,146.303 352.038 C 145.292 352.743,144.382 353.413,144.280 353.526 C 144.179 353.639,143.515 353.962,142.804 354.244 C 142.094 354.525,141.430 354.868,141.328 355.005 C 141.041 355.395,136.198 356.532,134.001 356.725 C 131.969 356.904,124.723 355.478,124.723 354.899 C 124.723 354.742,124.415 354.613,124.037 354.613 C 123.271 354.613,119.344 352.607,118.544 351.807 C 118.260 351.523,117.869 351.292,117.674 351.292 C 117.112 351.292,111.315 345.297,110.702 344.084 C 110.398 343.482,109.954 342.863,109.716 342.710 C 109.478 342.557,109.174 341.934,109.040 341.326 C 108.907 340.719,108.671 340.221,108.516 340.221 C 108.362 340.221,108.025 339.267,107.767 338.100 C 107.509 336.933,107.142 335.785,106.951 335.548 C 106.403 334.870,106.166 327.753,106.596 324.908 C 107.157 321.198,108.203 316.452,108.507 316.236 C 108.650 316.135,108.980 315.097,109.239 313.930 C 109.499 312.763,109.825 311.808,109.963 311.808 C 110.101 311.808,110.433 310.895,110.701 309.779 C 110.969 308.662,111.328 307.749,111.498 307.749 C 111.669 307.749,111.814 307.458,111.821 307.103 C 111.828 306.748,112.154 305.793,112.546 304.982 C 112.938 304.170,113.265 303.282,113.272 303.008 C 113.278 302.734,113.516 301.987,113.798 301.347 C 114.081 300.708,114.759 298.690,115.304 296.863 C 115.850 295.037,116.373 293.301,116.467 293.007 C 120.368 280.838,119.365 265.558,114.175 258.118 C 107.297 248.257,95.174 246.002,80.586 251.869 C 75.985 253.719,64.620 259.359,62.937 260.626 C 62.242 261.150,59.991 262.361,58.948 262.772 C 58.390 262.992,57.934 263.314,57.934 263.488 C 57.934 263.662,57.352 263.913,56.642 264.046 C 55.932 264.180,55.351 264.415,55.351 264.569 C 55.351 264.723,54.603 265.058,53.690 265.314 C 52.777 265.569,52.030 265.903,52.030 266.054 C 52.030 266.385,47.823 267.596,46.437 267.664 C 45.899 267.691,45.523 267.818,45.603 267.947 C 45.683 268.076,44.795 268.300,43.631 268.444 C 42.466 268.588,41.323 268.861,41.092 269.051 C 40.573 269.477,29.121 269.532,28.817 269.110 C 28.696 268.942,27.352 268.536,25.830 268.207 C 22.664 267.523,19.598 266.449,18.886 265.775 C 18.618 265.522,18.007 265.217,17.529 265.096 C 17.050 264.976,16.569 264.644,16.459 264.358 C 16.349 264.072,16.005 263.838,15.694 263.838 C 15.383 263.838,15.129 263.666,15.129 263.457 C 15.129 263.248,14.839 262.970,14.483 262.840 C 13.648 262.533,9.225 258.152,9.225 257.631 C 9.225 257.412,9.018 257.099,8.764 256.937 C 8.143 256.540,7.366 255.173,5.765 251.661 C 3.962 247.706,3.952 235.989,5.748 232.547 C 6.035 231.998,6.271 231.301,6.273 230.996 C 6.276 230.692,6.507 230.002,6.788 229.464 C 7.069 228.925,7.496 227.887,7.737 227.157 C 7.978 226.427,8.302 225.830,8.457 225.830 C 8.612 225.830,8.938 225.166,9.181 224.354 C 9.425 223.542,9.763 222.878,9.933 222.878 C 10.103 222.878,10.449 222.380,10.701 221.771 C 10.953 221.162,11.306 220.664,11.484 220.664 C 11.662 220.664,11.808 220.421,11.808 220.124 C 11.808 219.826,12.140 219.405,12.546 219.188 C 12.952 218.971,13.284 218.610,13.284 218.386 C 13.284 217.813,18.213 212.377,20.588 210.332 C 22.234 208.914,26.518 205.904,26.890 205.904 C 27.119 205.904,27.306 205.729,27.306 205.516 C 27.306 205.302,27.804 204.954,28.413 204.742 C 29.022 204.530,29.520 204.217,29.520 204.048 C 29.520 203.878,29.894 203.623,30.351 203.481 C 30.807 203.338,31.264 203.107,31.365 202.968 C 31.525 202.748,35.262 200.921,37.454 199.992 C 37.860 199.820,39.022 199.324,40.037 198.890 C 42.345 197.903,47.158 196.310,47.833 196.310 C 48.112 196.310,48.339 196.164,48.339 195.985 C 48.339 195.806,49.668 195.444,51.292 195.180 C 52.915 194.917,54.244 194.582,54.244 194.437 C 54.244 194.291,55.696 193.979,57.472 193.742 C 59.248 193.506,61.033 193.160,61.439 192.973 C 63.924 191.831,93.358 190.458,93.358 191.484 C 93.358 191.684,93.167 192.265,92.935 192.776 C 92.640 193.422,92.628 193.849,92.895 194.177 C 93.105 194.437,93.476 195.615,93.718 196.794 C 95.231 204.173,100.611 207.914,107.865 206.631 C 111.334 206.018,116.527 202.980,117.620 200.924 C 120.184 196.097,120.712 193.346,120.255 187.200 C 119.277 174.047,106.386 164.870,79.889 158.463 C 78.672 158.169,77.409 157.777,77.084 157.592 C 76.758 157.408,75.721 157.141,74.777 157.000 C 73.834 156.858,73.063 156.614,73.063 156.457 C 73.063 156.301,71.981 155.968,70.660 155.719 C 69.338 155.469,68.173 155.130,68.070 154.964 C 67.968 154.798,66.974 154.459,65.861 154.210 C 64.748 153.961,63.838 153.633,63.838 153.481 C 63.838 153.329,63.007 152.992,61.993 152.732 C 60.978 152.472,60.148 152.124,60.148 151.960 C 60.148 151.795,59.967 151.661,59.746 151.661 C 59.526 151.661,58.322 151.073,57.071 150.354 C 53.610 148.366,53.344 148.190,53.026 147.694 C 52.864 147.440,52.556 147.232,52.343 147.232 C 51.979 147.232,48.949 144.543,47.639 143.057 C 47.314 142.688,46.540 141.809,45.918 141.104 C 45.297 140.399,44.313 138.874,43.732 137.716 C 43.151 136.557,42.546 135.521,42.388 135.413 C 42.230 135.306,41.889 134.102,41.630 132.738 C 41.372 131.374,41.032 130.258,40.875 130.258 C 40.719 130.258,40.590 128.930,40.590 127.306 C 40.590 125.683,40.718 124.354,40.875 124.354 C 41.031 124.354,41.348 123.361,41.579 122.148 C 41.809 120.935,42.263 119.677,42.586 119.354 C 42.909 119.031,43.173 118.529,43.173 118.239 C 43.173 117.949,43.339 117.712,43.542 117.712 C 43.745 117.712,43.911 117.536,43.911 117.322 C 43.911 116.842,45.945 114.234,47.325 112.943 C 49.014 111.362,49.380 111.085,50.355 110.640 C 50.870 110.406,51.292 110.101,51.292 109.963 C 51.292 109.825,51.956 109.493,52.768 109.225 C 53.579 108.957,54.244 108.615,54.244 108.465 C 54.244 108.315,55.115 107.987,56.181 107.738 C 57.246 107.488,58.284 107.154,58.487 106.995 C 59.977 105.829,73.756 105.815,75.959 106.977 C 76.294 107.153,77.565 107.500,78.782 107.748 C 80.000 107.995,81.162 108.323,81.365 108.476 C 81.568 108.629,82.227 108.872,82.829 109.017 C 83.430 109.161,84.593 109.580,85.412 109.948 C 86.230 110.316,87.440 110.733,88.100 110.873 C 88.759 111.014,89.299 111.282,89.299 111.468 C 89.299 111.655,89.490 111.808,89.723 111.808 C 90.188 111.808,94.168 113.700,94.465 114.062 C 94.566 114.186,95.272 114.510,96.033 114.782 C 96.794 115.055,97.417 115.410,97.417 115.572 C 97.417 115.734,97.614 115.867,97.854 115.867 C 98.094 115.867,98.966 116.185,99.791 116.574 C 100.616 116.963,102.454 117.812,103.875 118.461 C 105.295 119.109,107.288 120.025,108.303 120.496 C 113.433 122.876,122.981 126.417,128.049 127.820 C 143.813 132.184,162.444 125.057,170.162 111.709 C 176.430 100.871,177.554 93.746,178.235 60.574 C 178.453 49.949,178.730 43.262,178.962 43.031 C 179.167 42.825,179.336 42.016,179.336 41.233 C 179.336 39.339,180.025 34.689,180.443 33.764 C 180.627 33.358,180.941 32.445,181.141 31.734 C 181.681 29.817,182.598 27.323,183.412 25.558 C 183.808 24.697,184.133 23.839,184.133 23.651 C 184.133 23.463,184.257 23.253,184.410 23.186 C 184.562 23.118,184.982 22.482,185.344 21.771 C 186.839 18.834,187.829 17.527,190.775 14.595 C 192.730 12.649,195.684 10.332,196.211 10.332 C 196.468 10.332,196.679 10.179,196.679 9.992 C 196.679 9.805,197.302 9.448,198.063 9.200 C 198.824 8.952,199.545 8.597,199.666 8.412 C 199.787 8.226,200.908 7.880,202.157 7.643 C 203.406 7.405,204.428 7.083,204.428 6.927 C 204.428 6.535,212.683 6.565,213.118 6.959 " stroke="none" fill="#04b404" fill-rule="evenodd"></path><path id="path1" d="M203.506 7.770 C 203.100 7.933,202.311 8.078,201.753 8.092 C 201.195 8.106,200.738 8.281,200.738 8.480 C 200.738 8.679,200.323 8.946,199.815 9.074 C 199.308 9.201,198.893 9.453,198.893 9.634 C 198.893 9.815,198.768 9.945,198.616 9.923 C 198.009 9.836,196.679 10.442,196.679 10.806 C 196.679 11.019,196.582 11.096,196.463 10.977 C 196.232 10.746,195.392 11.369,193.687 13.036 C 193.100 13.609,192.620 13.995,192.620 13.893 C 192.620 13.791,191.656 14.650,190.479 15.802 C 189.301 16.954,188.382 17.997,188.438 18.120 C 188.493 18.242,188.050 18.907,187.454 19.596 C 185.880 21.414,185.886 21.406,184.782 23.651 C 184.225 24.782,183.665 26.233,183.536 26.876 C 183.408 27.518,183.192 28.044,183.056 28.044 C 182.763 28.044,181.919 31.062,181.919 32.109 C 181.919 32.512,181.786 32.841,181.623 32.841 C 181.460 32.841,181.132 34.128,180.893 35.701 C 180.654 37.274,180.369 38.976,180.260 39.483 C 180.051 40.450,179.509 45.602,179.153 50.000 C 179.038 51.421,178.856 53.662,178.749 54.982 C 178.642 56.301,178.571 60.867,178.592 65.129 C 178.633 73.687,178.048 86.979,177.504 89.852 C 177.312 90.867,176.974 92.932,176.754 94.441 C 175.136 105.542,167.942 117.804,159.995 123.009 C 152.815 127.711,147.823 129.154,138.745 129.149 C 132.434 129.146,126.321 128.249,123.985 126.982 C 123.681 126.817,122.559 126.474,121.493 126.219 C 120.427 125.964,119.463 125.607,119.350 125.424 C 119.237 125.242,118.864 125.091,118.521 125.089 C 118.177 125.087,117.066 124.677,116.052 124.178 C 115.037 123.679,114.077 123.265,113.919 123.259 C 113.626 123.247,110.644 121.884,104.428 118.921 C 99.051 116.358,94.259 114.174,92.066 113.289 C 91.661 113.125,90.722 112.724,89.981 112.399 C 89.240 112.074,88.407 111.808,88.131 111.808 C 87.854 111.808,87.008 111.476,86.250 111.070 C 85.493 110.664,84.574 110.332,84.208 110.332 C 83.842 110.332,83.385 110.186,83.192 110.006 C 82.892 109.728,81.741 109.386,77.306 108.262 C 72.217 106.971,61.782 106.133,60.775 106.934 C 60.532 107.128,59.502 107.406,58.487 107.553 C 57.472 107.699,56.435 107.989,56.181 108.198 C 55.927 108.407,55.720 108.462,55.720 108.321 C 55.720 108.181,55.459 108.326,55.140 108.645 C 54.821 108.964,54.265 109.225,53.905 109.225 C 53.544 109.225,52.887 109.516,52.443 109.871 C 52.000 110.226,50.688 111.249,49.527 112.144 C 47.386 113.796,43.911 117.676,43.911 118.415 C 43.911 118.637,43.745 118.819,43.542 118.819 C 43.339 118.819,43.173 119.070,43.173 119.377 C 43.173 119.683,42.800 120.721,42.343 121.683 C 41.441 123.582,41.125 131.128,41.924 131.667 C 42.129 131.806,42.506 132.874,42.761 134.041 C 43.017 135.208,43.369 136.162,43.544 136.162 C 43.810 136.162,44.383 137.340,44.447 138.016 C 44.457 138.123,44.670 138.455,44.922 138.754 C 46.277 140.370,48.017 142.722,48.395 143.450 C 48.633 143.907,48.984 144.280,49.177 144.280 C 49.494 144.280,49.962 144.653,52.030 146.550 C 52.396 146.885,53.056 147.274,53.497 147.414 C 53.938 147.554,54.199 147.769,54.076 147.892 C 53.954 148.014,54.513 148.456,55.318 148.873 C 56.124 149.290,57.748 150.127,58.927 150.733 C 60.106 151.339,61.155 151.949,61.260 152.089 C 61.364 152.229,62.235 152.542,63.197 152.784 C 64.158 153.026,64.945 153.343,64.945 153.488 C 64.945 153.633,65.152 153.754,65.406 153.757 C 65.660 153.761,66.946 154.195,68.266 154.723 C 69.585 155.251,71.134 155.766,71.709 155.867 C 72.598 156.023,74.531 156.644,76.753 157.487 C 77.057 157.602,77.555 157.743,77.860 157.800 C 78.164 157.857,79.410 158.141,80.627 158.431 C 85.477 159.587,87.667 160.188,88.279 160.529 C 88.632 160.725,89.164 160.886,89.461 160.886 C 91.007 160.886,99.363 164.036,103.875 166.319 C 115.947 172.429,122.008 182.095,120.635 193.045 C 120.277 195.899,119.000 199.631,118.381 199.631 C 118.216 199.631,118.081 199.884,118.081 200.193 C 118.081 202.979,107.735 208.181,104.182 207.181 C 103.607 207.019,103.054 206.864,102.952 206.836 C 102.851 206.808,102.186 206.656,101.476 206.499 C 99.656 206.096,96.543 203.900,95.506 202.286 C 93.972 199.900,93.752 199.353,93.147 196.417 C 92.586 193.699,92.013 192.366,91.587 192.792 C 91.482 192.897,91.152 192.780,90.854 192.532 C 90.203 191.992,75.515 191.885,70.295 192.383 C 68.469 192.557,66.559 192.723,66.052 192.752 C 65.544 192.781,65.046 192.908,64.945 193.034 C 64.843 193.160,63.688 193.376,62.377 193.514 C 61.066 193.652,59.821 193.893,59.609 194.050 C 59.398 194.207,58.768 194.292,58.210 194.238 C 57.652 194.184,57.196 194.273,57.196 194.436 C 57.196 194.598,56.361 194.830,55.342 194.951 C 54.322 195.071,53.284 195.298,53.035 195.454 C 52.787 195.609,52.417 195.748,52.214 195.762 C 51.635 195.801,48.603 196.675,47.786 197.038 C 47.380 197.218,46.135 197.574,45.018 197.830 C 43.902 198.085,42.823 198.407,42.620 198.545 C 42.082 198.912,39.346 199.795,39.022 199.707 C 38.870 199.665,38.745 199.797,38.745 200.000 C 38.745 200.203,38.423 200.369,38.029 200.369 C 37.635 200.369,37.209 200.538,37.081 200.744 C 36.954 200.950,36.695 201.024,36.506 200.907 C 36.317 200.790,36.162 200.829,36.161 200.993 C 36.160 201.157,35.371 201.607,34.408 201.991 C 33.445 202.376,32.159 203.051,31.550 203.490 C 30.941 203.929,29.890 204.512,29.215 204.784 C 28.540 205.056,27.407 205.793,26.697 206.422 C 25.987 207.050,25.280 207.565,25.126 207.565 C 24.381 207.565,16.611 214.927,14.807 217.343 C 14.276 218.054,13.697 218.739,13.520 218.868 C 13.343 218.996,12.749 219.869,12.200 220.809 C 11.651 221.749,11.109 222.425,10.996 222.312 C 10.883 222.199,10.676 222.557,10.538 223.109 C 10.400 223.660,9.965 224.521,9.571 225.021 C 9.178 225.521,8.856 226.156,8.856 226.434 C 8.856 226.711,8.705 226.937,8.521 226.937 C 8.337 226.937,7.973 227.768,7.713 228.782 C 7.453 229.797,7.134 230.627,7.003 230.627 C 6.872 230.627,6.743 230.835,6.715 231.089 C 6.687 231.342,6.398 232.712,6.072 234.133 C 4.216 242.213,4.705 247.767,7.839 254.213 C 9.332 257.284,13.583 262.254,15.221 262.844 C 15.577 262.972,15.867 263.235,15.867 263.428 C 15.867 263.622,16.448 263.972,17.159 264.207 C 17.869 264.441,18.450 264.814,18.450 265.035 C 18.450 265.256,18.556 265.331,18.685 265.202 C 18.815 265.072,19.373 265.289,19.926 265.683 C 20.479 266.077,21.034 266.297,21.158 266.173 C 21.283 266.048,21.596 266.113,21.855 266.317 C 22.347 266.706,25.595 267.739,27.491 268.109 C 30.027 268.606,38.367 268.707,41.350 268.278 C 43.063 268.032,44.673 267.817,44.926 267.802 C 45.180 267.786,45.387 267.657,45.387 267.513 C 45.387 267.370,46.072 267.143,46.909 267.010 C 47.746 266.876,49.199 266.414,50.138 265.983 C 51.077 265.552,52.053 265.198,52.306 265.195 C 52.560 265.193,52.768 265.065,52.768 264.912 C 52.768 264.758,53.321 264.450,53.997 264.227 C 54.673 264.004,55.871 263.493,56.658 263.092 C 57.445 262.690,58.304 262.362,58.565 262.362 C 58.827 262.362,59.041 262.217,59.041 262.041 C 59.041 261.864,59.788 261.510,60.701 261.255 C 61.614 260.999,62.362 260.652,62.362 260.483 C 62.362 260.315,63.026 259.978,63.838 259.735 C 64.649 259.492,65.314 259.169,65.314 259.018 C 65.314 258.765,67.246 257.949,67.769 257.982 C 67.895 257.990,68.100 257.858,68.225 257.688 C 68.480 257.341,69.577 256.734,74.378 254.288 C 77.913 252.486,78.675 252.149,81.919 250.951 C 88.832 248.397,100.424 247.560,102.380 249.473 C 102.573 249.661,102.970 249.815,103.262 249.815 C 105.693 249.815,113.239 255.590,114.835 258.672 C 115.097 259.179,115.421 259.677,115.553 259.779 C 115.925 260.063,117.535 263.798,118.225 265.974 C 119.584 270.261,119.859 278.801,118.819 284.410 C 117.991 288.873,117.257 292.097,116.992 292.435 C 116.832 292.638,116.492 293.718,116.236 294.834 C 115.980 295.950,115.648 297.030,115.498 297.232 C 115.348 297.435,115.023 298.266,114.776 299.077 C 114.530 299.889,114.093 301.077,113.806 301.716 C 113.519 302.356,113.284 303.072,113.284 303.308 C 113.284 303.545,112.977 304.516,112.602 305.467 C 111.281 308.818,110.957 309.831,110.523 311.993 C 110.359 312.804,110.099 313.552,109.943 313.654 C 109.788 313.756,109.444 314.919,109.178 316.237 C 108.913 317.556,108.608 318.718,108.499 318.819 C 108.248 319.055,108.133 319.569,107.673 322.509 C 107.466 323.828,107.135 325.010,106.937 325.134 C 106.475 325.424,106.465 334.000,106.926 334.918 C 107.117 335.298,107.560 336.439,107.911 337.454 C 109.076 340.819,109.404 341.494,111.022 343.858 C 112.482 345.993,116.443 350.185,116.999 350.185 C 117.125 350.185,117.700 350.590,118.278 351.086 C 118.855 351.582,119.444 351.915,119.588 351.826 C 119.731 351.737,119.944 351.913,120.060 352.216 C 120.177 352.519,120.495 352.768,120.768 352.768 C 121.040 352.768,121.979 353.113,122.854 353.536 C 123.729 353.959,125.006 354.396,125.691 354.507 C 126.377 354.618,126.937 354.843,126.937 355.007 C 126.937 355.171,127.228 355.298,127.583 355.290 C 127.938 355.282,129.474 355.391,130.996 355.531 C 134.411 355.845,141.399 354.585,142.046 353.538 C 142.163 353.349,142.701 353.084,143.243 352.948 C 143.784 352.812,144.317 352.467,144.427 352.181 C 144.536 351.895,144.857 351.661,145.140 351.661 C 145.422 351.661,146.231 351.121,146.936 350.461 C 147.642 349.802,148.899 348.688,149.730 347.987 C 150.561 347.285,151.159 346.578,151.058 346.415 C 150.957 346.252,151.259 345.965,151.729 345.777 C 152.199 345.588,152.447 345.424,152.280 345.411 C 152.113 345.398,152.196 345.144,152.464 344.847 C 153.599 343.589,153.910 343.116,155.062 340.896 C 155.728 339.612,156.398 338.506,156.550 338.438 C 156.702 338.370,156.827 338.038,156.828 337.700 C 156.829 337.362,157.142 336.573,157.523 335.947 C 157.905 335.321,158.332 334.284,158.474 333.641 C 158.615 332.998,158.890 332.472,159.086 332.472 C 159.282 332.472,159.408 332.265,159.367 332.011 C 159.325 331.757,159.484 331.082,159.719 330.511 C 159.955 329.940,160.148 329.317,160.148 329.127 C 160.148 328.938,160.341 328.782,160.578 328.782 C 160.815 328.782,160.921 328.695,160.815 328.588 C 160.708 328.482,161.027 327.278,161.523 325.913 C 162.019 324.548,162.596 322.685,162.805 321.771 C 163.014 320.858,163.313 319.945,163.469 319.742 C 163.625 319.539,163.868 318.792,164.009 318.081 C 165.931 308.419,172.777 293.083,177.655 287.510 C 181.739 282.843,188.705 277.867,191.162 277.861 C 191.477 277.860,191.892 277.711,192.085 277.530 C 194.627 275.140,213.072 276.103,219.373 278.955 C 219.779 279.139,220.526 279.401,221.033 279.538 C 223.989 280.335,235.712 286.273,236.101 287.170 C 236.169 287.326,236.394 287.454,236.601 287.454 C 236.955 287.454,244.844 293.234,246.162 294.459 C 246.493 294.767,247.655 295.766,248.744 296.679 C 249.833 297.592,251.640 299.183,252.760 300.214 C 253.880 301.245,255.455 302.656,256.259 303.350 C 257.063 304.045,260.716 307.668,264.377 311.403 C 275.518 322.770,284.331 331.530,285.016 331.919 C 285.373 332.122,285.653 332.412,285.637 332.565 C 285.593 332.993,286.866 334.219,287.180 334.051 C 287.333 333.969,287.559 334.161,287.680 334.478 C 287.802 334.796,288.161 335.055,288.477 335.055 C 288.794 335.055,288.949 335.159,288.822 335.286 C 288.695 335.413,289.107 335.953,289.738 336.486 C 290.368 337.018,291.500 338.035,292.254 338.745 C 293.007 339.456,294.733 341.033,296.089 342.251 C 297.445 343.469,299.232 345.088,300.060 345.849 C 300.888 346.610,301.627 347.232,301.702 347.232 C 301.823 347.232,303.012 348.198,304.200 349.262 C 304.427 349.465,305.360 350.129,306.273 350.737 C 307.186 351.345,308.017 351.934,308.118 352.046 C 308.220 352.158,309.080 352.698,310.029 353.247 C 310.979 353.795,311.975 354.459,312.243 354.721 C 312.511 354.983,313.312 355.430,314.022 355.714 C 314.732 355.999,315.397 356.326,315.498 356.442 C 315.860 356.856,320.692 358.672,321.431 358.672 C 321.845 358.672,322.101 358.806,322.000 358.969 C 321.898 359.133,322.843 359.480,324.100 359.740 C 325.356 360.000,326.633 360.305,326.937 360.416 C 328.732 361.074,336.302 361.423,338.561 360.951 C 343.257 359.971,346.829 358.509,348.759 356.777 C 349.294 356.297,350.337 355.364,351.078 354.705 C 351.818 354.045,352.303 353.506,352.156 353.506 C 352.009 353.506,352.211 353.262,352.605 352.964 C 352.999 352.666,353.171 352.417,352.987 352.410 C 352.803 352.404,352.909 352.108,353.222 351.753 C 354.311 350.516,356.089 346.752,356.089 345.683 C 356.089 345.090,356.244 344.702,356.434 344.820 C 357.047 345.199,356.676 337.283,355.968 334.883 C 355.610 333.671,355.176 332.592,355.003 332.484 C 354.830 332.376,354.499 331.582,354.268 330.720 C 354.036 329.857,353.704 329.151,353.531 329.151 C 353.358 329.151,353.120 328.767,353.002 328.298 C 352.885 327.829,352.369 326.957,351.856 326.361 C 351.343 325.765,350.923 325.069,350.923 324.815 C 350.923 324.562,350.756 324.354,350.554 324.354 C 350.351 324.354,350.185 324.113,350.185 323.819 C 350.185 323.525,349.977 323.151,349.723 322.989 C 349.262 322.694,348.876 322.156,347.683 320.148 C 347.334 319.560,346.508 318.508,345.849 317.811 C 345.189 317.113,344.649 316.466,344.649 316.373 C 344.649 316.280,344.234 315.756,343.727 315.209 C 343.220 314.662,342.804 314.102,342.804 313.965 C 342.804 313.828,342.265 313.132,341.605 312.417 C 340.946 311.702,340.240 310.897,340.037 310.629 C 338.472 308.559,333.987 303.444,330.750 300.036 C 329.092 298.291,327.210 296.200,326.568 295.390 C 325.925 294.580,325.280 293.833,325.134 293.730 C 324.927 293.584,321.364 289.154,319.641 286.900 C 315.465 281.438,311.405 272.520,310.316 266.421 C 309.484 261.757,309.980 249.602,311.061 248.155 C 311.213 247.952,311.455 247.294,311.600 246.692 C 311.885 245.502,313.093 242.584,313.668 241.697 C 313.865 241.393,314.133 240.895,314.263 240.590 C 315.129 238.561,319.211 233.854,322.140 231.509 C 324.815 229.367,324.739 229.420,326.015 228.783 C 326.624 228.479,327.205 228.135,327.306 228.019 C 327.775 227.485,333.902 224.871,335.478 224.534 C 336.159 224.388,336.884 224.135,337.089 223.970 C 337.531 223.617,341.147 222.668,345.018 221.890 C 346.541 221.584,348.118 221.193,348.524 221.022 C 349.136 220.764,351.328 220.297,354.250 219.802 C 354.558 219.749,354.973 219.611,355.173 219.494 C 355.372 219.378,356.320 219.168,357.279 219.029 C 358.239 218.890,359.105 218.644,359.206 218.482 C 359.306 218.319,360.389 217.974,361.613 217.714 C 362.836 217.455,363.838 217.125,363.838 216.982 C 363.838 216.840,364.751 216.518,365.867 216.268 C 366.983 216.019,367.897 215.682,367.897 215.520 C 367.897 215.358,368.644 215.016,369.557 214.760 C 370.470 214.504,371.218 214.187,371.218 214.055 C 371.218 213.826,372.888 213.088,373.575 213.014 C 373.755 212.994,374.004 212.839,374.128 212.669 C 374.253 212.499,375.101 211.862,376.015 211.255 C 376.928 210.647,377.808 209.942,377.970 209.687 C 378.133 209.433,378.442 209.225,378.659 209.225 C 379.134 209.225,382.657 205.590,382.657 205.100 C 382.657 204.909,382.823 204.856,383.026 204.982 C 383.229 205.107,383.395 204.982,383.395 204.704 C 383.395 204.426,383.717 203.852,384.111 203.430 C 384.504 203.007,384.726 202.561,384.603 202.438 C 384.480 202.315,384.550 202.214,384.759 202.214 C 385.196 202.214,387.085 198.188,387.085 197.257 C 387.085 196.915,387.216 196.716,387.376 196.815 C 387.536 196.914,387.886 196.052,388.152 194.900 C 388.419 193.747,388.740 192.638,388.865 192.435 C 389.114 192.033,389.126 191.978,389.670 188.745 C 389.875 187.528,390.128 186.033,390.233 185.424 C 391.054 180.655,391.332 167.364,390.714 162.362 C 390.526 160.839,390.359 159.224,390.343 158.771 C 390.327 158.318,390.168 158.037,389.991 158.147 C 389.813 158.256,389.654 157.880,389.638 157.310 C 389.588 155.613,389.276 154.107,388.874 153.623 C 388.667 153.373,388.604 152.996,388.735 152.784 C 388.866 152.572,388.812 152.399,388.615 152.399 C 388.418 152.399,388.144 151.734,388.007 150.921 C 387.870 150.108,387.625 149.525,387.464 149.625 C 387.302 149.725,386.983 149.061,386.753 148.150 C 386.524 147.240,386.192 146.494,386.016 146.494 C 385.745 146.494,385.595 146.165,385.263 144.834 C 385.240 144.742,384.810 144.224,384.308 143.682 C 383.806 143.140,383.395 142.490,383.395 142.237 C 383.395 141.983,383.146 141.681,382.841 141.564 C 382.537 141.447,382.288 141.176,382.288 140.962 C 382.288 140.536,376.757 134.874,376.265 134.797 C 376.099 134.771,375.444 134.320,374.810 133.796 C 374.177 133.271,373.441 132.841,373.176 132.841 C 372.911 132.841,372.694 132.665,372.694 132.451 C 372.694 132.236,372.528 132.162,372.325 132.288 C 372.122 132.413,371.956 132.353,371.956 132.154 C 371.956 131.955,371.375 131.600,370.664 131.365 C 369.954 131.131,369.373 130.786,369.373 130.599 C 369.373 130.411,369.165 130.257,368.911 130.256 C 368.658 130.255,368.014 130.026,367.482 129.749 C 366.949 129.471,365.663 129.025,364.622 128.759 C 363.582 128.492,362.731 128.167,362.731 128.036 C 362.731 127.905,362.523 127.779,362.269 127.756 C 362.016 127.732,360.480 127.522,358.856 127.288 C 355.681 126.831,346.306 127.061,343.727 127.660 C 342.915 127.849,341.017 128.259,339.509 128.571 C 338.000 128.884,336.653 129.323,336.515 129.546 C 336.377 129.770,336.117 129.927,335.937 129.897 C 335.173 129.768,333.210 130.322,333.210 130.666 C 333.210 130.872,333.037 130.933,332.825 130.802 C 332.613 130.671,332.240 130.715,331.995 130.900 C 331.750 131.085,330.803 131.440,329.889 131.690 C 328.976 131.939,327.232 132.613,326.015 133.188 C 324.797 133.762,322.638 134.680,321.218 135.228 C 318.728 136.188,317.316 136.796,313.906 138.376 C 313.030 138.782,312.116 139.114,311.876 139.114 C 311.636 139.114,311.439 139.262,311.439 139.442 C 311.439 139.623,310.858 139.879,310.148 140.013 C 309.437 140.146,308.856 140.408,308.856 140.596 C 308.856 140.783,308.607 140.841,308.303 140.724 C 307.998 140.607,307.749 140.695,307.749 140.920 C 307.749 141.145,307.437 141.328,307.056 141.328 C 306.675 141.328,306.157 141.577,305.904 141.882 C 305.651 142.186,305.214 142.435,304.932 142.435 C 304.651 142.435,303.633 142.790,302.671 143.224 C 301.709 143.658,300.092 144.388,299.077 144.846 C 298.063 145.305,296.153 146.120,294.834 146.657 C 293.515 147.195,292.103 147.782,291.697 147.961 C 291.292 148.141,290.295 148.477,289.483 148.708 C 288.672 148.940,287.675 149.278,287.269 149.459 C 275.801 154.596,256.375 155.131,245.572 150.607 C 244.198 150.032,240.408 148.157,240.037 147.869 C 239.834 147.711,238.838 147.048,237.823 146.396 C 236.255 145.388,230.905 140.323,229.694 138.700 C 226.987 135.072,224.219 128.619,222.671 122.325 C 221.871 119.069,221.518 107.300,222.105 103.413 C 222.327 101.942,222.687 99.555,222.904 98.110 C 223.121 96.664,223.801 93.551,224.415 91.191 C 225.029 88.831,225.684 86.236,225.870 85.424 C 226.057 84.613,226.448 83.367,226.740 82.657 C 227.031 81.946,227.732 79.705,228.297 77.675 C 228.861 75.646,229.437 73.934,229.577 73.872 C 229.716 73.810,230.035 72.612,230.285 71.210 C 230.536 69.808,230.852 68.730,230.989 68.815 C 231.125 68.899,231.454 67.855,231.718 66.495 C 231.983 65.135,232.322 63.856,232.472 63.653 C 232.622 63.450,232.963 62.163,233.230 60.793 C 233.497 59.423,233.834 58.303,233.980 58.303 C 234.126 58.303,234.363 57.265,234.507 55.996 C 234.651 54.728,234.929 53.491,235.125 53.248 C 235.322 53.005,235.433 52.424,235.372 51.957 C 235.312 51.489,235.416 50.861,235.603 50.560 C 236.329 49.392,236.106 35.597,235.304 32.103 C 235.234 31.799,234.962 30.512,234.699 29.244 C 234.436 27.975,234.108 26.937,233.970 26.937 C 233.832 26.937,233.506 26.107,233.246 25.093 C 232.986 24.079,232.633 23.162,232.462 23.056 C 232.290 22.950,231.890 22.369,231.573 21.764 C 231.256 21.159,230.744 20.184,230.435 19.596 C 230.127 19.009,229.628 18.324,229.328 18.075 C 229.028 17.826,228.782 17.464,228.782 17.270 C 228.782 16.782,223.578 11.861,222.786 11.601 C 222.431 11.485,222.140 11.261,222.140 11.105 C 222.140 10.789,218.354 8.856,217.735 8.856 C 217.520 8.856,217.343 8.718,217.343 8.549 C 217.343 8.379,217.136 8.221,216.882 8.196 C 216.628 8.171,215.590 7.972,214.576 7.754 C 212.491 7.307,204.632 7.318,203.506 7.770 " stroke="none" fill="#bcfc04" fill-rule="evenodd"></path><path id="path2" d="M178.314 63.469 C 178.314 64.179,178.390 64.470,178.483 64.114 C 178.576 63.759,178.576 63.178,178.483 62.823 C 178.390 62.468,178.314 62.758,178.314 63.469 M178.353 73.801 C 178.353 75.323,178.418 75.946,178.498 75.185 C 178.577 74.423,178.577 73.178,178.498 72.417 C 178.418 71.656,178.353 72.279,178.353 73.801 M177.965 82.841 C 177.968 83.856,178.040 84.227,178.125 83.667 C 178.209 83.106,178.207 82.275,178.120 81.821 C 178.032 81.368,177.963 81.827,177.965 82.841 M177.605 86.900 C 177.607 88.118,177.676 88.572,177.758 87.909 C 177.840 87.245,177.839 86.249,177.754 85.694 C 177.670 85.140,177.603 85.683,177.605 86.900 M222.233 102.768 C 222.237 103.579,222.313 103.868,222.401 103.409 C 222.489 102.950,222.486 102.286,222.394 101.933 C 222.301 101.580,222.229 101.956,222.233 102.768 M221.864 105.720 C 221.868 106.531,221.944 106.820,222.032 106.361 C 222.120 105.902,222.117 105.238,222.025 104.885 C 221.932 104.532,221.860 104.908,221.864 105.720 M221.857 116.974 C 221.857 117.685,221.933 117.975,222.026 117.620 C 222.118 117.265,222.118 116.684,222.026 116.328 C 221.933 115.973,221.857 116.264,221.857 116.974 M120.750 190.037 C 120.750 190.747,120.826 191.038,120.919 190.683 C 121.011 190.327,121.011 189.746,120.919 189.391 C 120.826 189.036,120.750 189.327,120.750 190.037 M104.709 207.272 C 105.168 207.360,105.832 207.357,106.185 207.265 C 106.538 207.172,106.162 207.100,105.351 207.104 C 104.539 207.108,104.250 207.184,104.709 207.272 M309.680 259.041 C 309.680 259.751,309.756 260.042,309.848 259.686 C 309.941 259.331,309.941 258.750,309.848 258.395 C 309.756 258.040,309.680 258.330,309.680 259.041 M119.321 275.646 C 119.321 277.574,119.383 278.363,119.459 277.399 C 119.535 276.435,119.535 274.857,119.459 273.893 C 119.383 272.929,119.321 273.718,119.321 275.646 M118.505 284.564 C 118.475 285.105,118.355 285.853,118.238 286.224 C 118.037 286.863,118.048 286.864,118.446 286.245 C 118.677 285.885,118.798 285.138,118.714 284.585 L 118.561 283.579 118.505 284.564 M249.446 297.488 C 249.446 297.562,250.484 298.520,251.753 299.619 C 253.021 300.717,253.644 301.152,253.137 300.586 C 252.217 299.561,249.446 297.235,249.446 297.488 M256.907 304.261 C 257.661 305.043,258.354 305.606,258.448 305.513 C 258.541 305.420,257.924 304.780,257.076 304.092 L 255.535 302.840 256.907 304.261 " stroke="none" fill="#9eec04" fill-rule="evenodd"></path><path id="path3" d="M177.984 73.801 C 177.984 75.323,178.049 75.946,178.129 75.185 C 178.208 74.423,178.208 73.178,178.129 72.417 C 178.049 71.656,177.984 72.279,177.984 73.801 M177.584 81.734 C 177.588 82.546,177.663 82.835,177.752 82.376 C 177.840 81.917,177.837 81.253,177.744 80.900 C 177.652 80.547,177.580 80.923,177.584 81.734 M176.846 90.590 C 176.850 91.402,176.925 91.691,177.014 91.232 C 177.102 90.773,177.099 90.109,177.006 89.756 C 176.914 89.403,176.842 89.779,176.846 90.590 M164.556 118.727 L 163.284 120.111 164.668 118.839 C 165.429 118.140,166.052 117.517,166.052 117.455 C 166.052 117.174,165.739 117.439,164.556 118.727 M134.598 129.043 C 135.057 129.132,135.722 129.128,136.074 129.036 C 136.427 128.943,136.052 128.871,135.240 128.875 C 134.428 128.879,134.139 128.955,134.598 129.043 M141.240 129.043 C 141.699 129.132,142.364 129.128,142.716 129.036 C 143.069 128.943,142.694 128.871,141.882 128.875 C 141.070 128.879,140.781 128.955,141.240 129.043 M120.401 188.376 C 120.404 189.391,120.475 189.762,120.560 189.202 C 120.645 188.641,120.643 187.810,120.555 187.357 C 120.467 186.903,120.398 187.362,120.401 188.376 M120.396 191.882 C 120.396 192.795,120.468 193.169,120.556 192.712 C 120.644 192.256,120.644 191.508,120.556 191.052 C 120.468 190.595,120.396 190.969,120.396 191.882 M310.418 252.768 C 310.418 253.478,310.494 253.768,310.586 253.413 C 310.679 253.058,310.679 252.477,310.586 252.122 C 310.494 251.767,310.418 252.057,310.418 252.768 M310.074 256.458 C 310.074 257.574,310.143 258.030,310.227 257.472 C 310.312 256.914,310.312 256.001,310.227 255.443 C 310.143 254.885,310.074 255.341,310.074 256.458 M310.056 262.915 C 310.060 263.727,310.136 264.016,310.224 263.557 C 310.312 263.098,310.309 262.433,310.217 262.081 C 310.124 261.728,310.052 262.103,310.056 262.915 M118.956 275.277 C 118.956 277.408,119.017 278.280,119.091 277.214 C 119.166 276.149,119.166 274.405,119.091 273.339 C 119.017 272.274,118.956 273.146,118.956 275.277 M201.388 276.276 C 201.847 276.364,202.511 276.361,202.864 276.268 C 203.217 276.176,202.841 276.104,202.030 276.108 C 201.218 276.112,200.929 276.187,201.388 276.276 M243.942 293.450 C 244.027 293.501,244.594 293.958,245.203 294.465 L 246.310 295.387 245.415 294.373 C 244.923 293.815,244.356 293.358,244.155 293.358 C 243.953 293.358,243.858 293.399,243.942 293.450 M250.000 298.524 C 250.793 299.336,251.524 300.000,251.626 300.000 C 251.727 300.000,251.162 299.336,250.369 298.524 C 249.576 297.712,248.845 297.048,248.743 297.048 C 248.642 297.048,249.207 297.712,250.000 298.524 M252.399 300.484 C 252.399 300.548,252.938 301.088,253.598 301.684 L 254.797 302.768 253.713 301.568 C 252.703 300.450,252.399 300.199,252.399 300.484 M256.827 304.544 C 256.827 304.607,257.366 305.147,258.026 305.743 L 259.225 306.827 258.141 305.627 C 257.131 304.509,256.827 304.258,256.827 304.544 " stroke="none" fill="#41cc04" fill-rule="evenodd"></path><path id="path4" d="M178.362 67.897 C 178.362 69.825,178.424 70.613,178.500 69.649 C 178.576 68.685,178.576 67.108,178.500 66.144 C 178.424 65.180,178.362 65.969,178.362 67.897 M177.981 78.782 C 177.983 80.203,178.049 80.739,178.129 79.973 C 178.209 79.208,178.208 78.045,178.126 77.390 C 178.045 76.735,177.979 77.362,177.981 78.782 M221.913 111.439 C 221.913 113.976,221.972 115.014,222.044 113.745 C 222.116 112.477,222.116 110.401,222.044 109.133 C 221.972 107.864,221.913 108.902,221.913 111.439 M112.546 172.440 C 112.546 172.504,113.086 173.043,113.745 173.639 L 114.945 174.723 113.861 173.524 C 112.851 172.406,112.546 172.155,112.546 172.440 M118.920 280.443 C 118.920 281.356,118.992 281.730,119.080 281.273 C 119.168 280.816,119.168 280.069,119.080 279.613 C 118.992 279.156,118.920 279.530,118.920 280.443 M255.166 302.952 C 255.959 303.764,256.690 304.428,256.792 304.428 C 256.893 304.428,256.328 303.764,255.535 302.952 C 254.742 302.140,254.011 301.476,253.909 301.476 C 253.808 301.476,254.373 302.140,255.166 302.952 M263.284 310.701 C 266.120 313.542,268.523 315.867,268.625 315.867 C 268.726 315.867,266.489 313.542,263.653 310.701 C 260.817 307.860,258.414 305.535,258.312 305.535 C 258.211 305.535,260.448 307.860,263.284 310.701 " stroke="none" fill="#6cdc04" fill-rule="evenodd"></path></g></svg>