<svg id="svg" version="1.1" xmlns="http://www.w3.org/2000/svg" xmlns:xlink="http://www.w3.org/1999/xlink" width="400" height="227.66666666666666" viewBox="0, 0, 400,227.66666666666666"><g id="svgg"><path id="path0" d="M195.444 33.463 L 195.444 42.781 193.337 42.893 C 190.781 43.029,187.524 43.453,186.902 43.731 C 186.651 43.842,185.734 44.002,184.863 44.086 C 183.992 44.169,183.019 44.343,182.699 44.471 C 182.380 44.600,181.760 44.786,181.321 44.884 C 180.883 44.983,180.319 45.121,180.068 45.190 C 179.818 45.260,179.216 45.415,178.731 45.534 C 178.246 45.653,177.738 45.861,177.603 45.996 C 177.468 46.131,177.096 46.245,176.777 46.249 C 176.457 46.253,175.786 46.455,175.285 46.697 C 174.784 46.939,174.244 47.141,174.086 47.145 C 173.927 47.149,173.620 47.250,173.402 47.369 C 173.185 47.489,172.597 47.757,172.096 47.966 C 171.595 48.175,170.052 48.897,168.667 49.572 C 167.283 50.246,166.027 50.797,165.877 50.797 C 165.727 50.797,165.604 50.893,165.604 51.010 C 165.604 51.127,165.373 51.293,165.091 51.380 C 164.809 51.467,164.174 51.833,163.679 52.193 C 163.185 52.553,162.647 52.847,162.484 52.847 C 162.320 52.847,162.187 52.926,162.187 53.023 C 162.187 53.120,161.726 53.451,161.162 53.759 C 160.598 54.067,160.137 54.396,160.137 54.491 C 160.137 54.586,159.804 54.809,159.396 54.988 C 158.989 55.166,158.380 55.551,158.042 55.845 C 157.705 56.138,157.096 56.634,156.689 56.948 C 152.753 59.981,148.404 64.171,145.672 67.564 C 144.282 69.290,142.597 71.528,142.597 71.649 C 142.597 71.717,142.492 71.897,142.365 72.048 C 141.454 73.128,141.230 73.448,141.230 73.670 C 141.230 73.809,140.972 74.201,140.657 74.540 C 140.342 74.880,139.979 75.391,139.850 75.677 C 139.721 75.962,139.263 76.811,138.832 77.563 C 137.501 79.886,135.612 83.838,134.748 86.105 C 134.295 87.295,133.831 88.474,133.718 88.724 C 133.604 88.975,133.441 89.535,133.356 89.970 C 133.270 90.404,133.117 90.917,133.017 91.109 C 132.739 91.642,132.171 93.626,132.006 94.647 C 131.924 95.148,131.767 95.763,131.657 96.014 C 131.008 97.480,129.821 107.410,130.313 107.246 C 130.461 107.196,130.608 106.699,130.640 106.141 C 130.671 105.582,130.815 104.257,130.959 103.195 C 131.103 102.134,131.254 100.904,131.293 100.462 C 131.333 100.020,131.424 99.505,131.496 99.317 C 131.568 99.129,131.691 98.565,131.768 98.064 C 131.972 96.739,132.603 94.020,132.801 93.614 C 132.895 93.422,133.046 92.910,133.136 92.475 C 133.227 92.041,133.554 90.968,133.864 90.091 C 134.174 89.214,134.533 88.138,134.661 87.699 C 134.789 87.261,134.987 86.805,135.101 86.686 C 135.215 86.567,135.308 86.321,135.308 86.140 C 135.308 85.829,136.013 84.246,137.659 80.866 C 141.918 72.118,149.531 62.957,157.403 57.107 C 159.220 55.757,160.811 54.572,160.939 54.473 C 162.284 53.435,169.004 49.857,171.868 48.656 C 172.244 48.498,172.910 48.203,173.349 47.999 C 173.787 47.796,175.325 47.255,176.765 46.796 C 178.206 46.337,179.590 45.877,179.841 45.773 C 180.273 45.594,181.077 45.398,183.542 44.871 C 187.865 43.947,189.387 43.718,193.736 43.343 L 195.786 43.166 195.845 33.656 C 195.885 27.360,195.827 24.146,195.674 24.146 C 195.523 24.146,195.444 27.336,195.444 33.463 M201.538 24.279 C 201.444 24.373,201.367 28.679,201.367 33.848 L 201.367 43.247 203.360 43.374 C 205.943 43.539,207.050 43.659,208.998 43.986 C 209.875 44.133,210.874 44.265,211.219 44.279 C 211.563 44.294,211.845 44.382,211.845 44.476 C 211.845 44.570,212.149 44.647,212.521 44.647 C 212.892 44.647,213.635 44.790,214.172 44.966 C 214.709 45.141,215.635 45.352,216.230 45.435 C 216.825 45.518,217.312 45.682,217.312 45.800 C 217.312 45.917,217.521 46.014,217.777 46.014 C 218.255 46.014,222.942 47.531,223.349 47.817 C 223.474 47.906,224.345 48.276,225.285 48.640 C 228.065 49.718,234.819 53.298,235.042 53.811 C 235.084 53.908,235.212 53.986,235.328 53.986 C 235.721 53.986,240.862 57.755,243.375 59.885 C 247.920 63.737,254.079 71.165,257.466 76.879 C 258.310 78.303,261.048 83.686,261.048 83.922 C 261.048 83.996,261.282 84.543,261.569 85.138 C 261.856 85.732,262.532 87.603,263.072 89.294 C 263.612 90.985,264.140 92.574,264.246 92.825 C 264.470 93.356,264.851 94.990,265.201 96.925 C 265.337 97.677,265.509 98.343,265.583 98.405 C 265.657 98.468,265.742 98.827,265.772 99.203 C 265.801 99.579,265.936 100.655,266.070 101.595 C 266.205 102.534,266.309 103.610,266.301 103.986 C 266.294 104.362,266.390 104.977,266.514 105.353 C 266.679 105.853,266.716 105.248,266.650 103.103 C 266.601 101.489,266.461 100.105,266.340 100.028 C 266.218 99.950,266.044 99.066,265.952 98.064 C 265.861 97.062,265.658 95.934,265.503 95.558 C 265.347 95.182,265.145 94.465,265.054 93.964 C 264.962 93.462,264.587 92.150,264.221 91.046 C 263.854 89.943,263.554 88.891,263.554 88.708 C 263.554 88.526,263.455 88.199,263.334 87.981 C 263.213 87.763,262.898 87.073,262.634 86.446 C 262.370 85.820,262.008 84.985,261.829 84.590 C 261.650 84.195,261.503 83.799,261.503 83.710 C 261.503 83.440,259.841 80.167,259.641 80.043 C 259.538 79.980,259.453 79.736,259.453 79.502 C 259.453 79.267,259.325 78.939,259.169 78.771 C 259.012 78.604,258.679 78.066,258.428 77.576 C 258.178 77.086,257.870 76.573,257.745 76.436 C 257.620 76.300,257.263 75.703,256.952 75.110 C 256.642 74.517,256.309 74.032,256.212 74.032 C 256.115 74.032,256.036 73.878,256.036 73.690 C 256.036 73.502,255.857 73.164,255.638 72.938 C 255.419 72.713,254.842 71.944,254.357 71.230 C 253.872 70.516,253.385 69.932,253.275 69.932 C 253.165 69.932,253.075 69.783,253.075 69.601 C 253.075 69.420,252.945 69.189,252.785 69.089 C 252.625 68.989,252.321 68.632,252.108 68.297 C 251.231 66.918,245.705 61.214,243.197 59.099 C 242.462 58.480,241.601 57.742,241.284 57.460 C 240.967 57.178,240.620 56.948,240.513 56.948 C 240.406 56.948,240.129 56.768,239.896 56.549 C 239.505 56.180,239.217 55.950,237.549 54.677 C 237.217 54.422,236.848 54.214,236.730 54.214 C 236.543 54.214,236.288 54.033,235.176 53.107 C 235.041 52.995,234.682 52.826,234.379 52.731 C 234.075 52.636,233.776 52.493,233.713 52.413 C 233.333 51.928,227.771 48.975,227.237 48.975 C 227.040 48.975,226.879 48.877,226.879 48.757 C 226.879 48.638,226.497 48.468,226.031 48.381 C 225.564 48.293,225.044 48.084,224.876 47.915 C 224.707 47.746,224.371 47.608,224.130 47.608 C 223.888 47.608,223.690 47.517,223.690 47.406 C 223.690 47.294,223.311 47.132,222.848 47.045 C 222.384 46.958,221.798 46.742,221.544 46.564 C 221.291 46.387,220.853 46.241,220.572 46.241 C 220.291 46.241,219.724 46.095,219.313 45.916 C 218.210 45.437,216.272 44.875,215.720 44.875 C 215.456 44.875,214.950 44.725,214.597 44.542 C 214.243 44.360,213.249 44.147,212.387 44.069 C 211.525 43.992,210.615 43.837,210.364 43.725 C 209.785 43.467,206.147 43.008,203.704 42.885 L 201.827 42.791 201.768 33.449 C 201.735 28.311,201.632 24.185,201.538 24.279 M192.027 49.572 C 191.839 49.621,190.456 49.861,188.952 50.104 C 184.206 50.873,183.263 51.060,183.041 51.273 C 182.922 51.387,182.640 51.481,182.415 51.481 C 181.986 51.481,179.406 52.283,178.808 52.603 C 178.616 52.705,178.107 52.867,177.677 52.961 C 177.246 53.056,176.737 53.219,176.545 53.325 C 176.353 53.431,175.196 53.932,173.975 54.440 C 171.675 55.396,169.217 56.642,166.856 58.049 C 165.351 58.946,161.228 61.701,161.048 61.929 C 160.985 62.009,160.165 62.689,159.226 63.440 C 154.315 67.367,148.740 73.831,145.278 79.613 C 144.153 81.491,142.827 84.109,142.826 84.453 C 142.825 84.610,142.748 84.738,142.654 84.739 C 142.560 84.739,142.289 85.226,142.051 85.821 C 141.578 87.004,140.868 88.692,140.542 89.408 C 140.350 89.830,140.020 90.829,139.115 93.736 C 138.919 94.362,138.687 95.285,138.598 95.786 C 138.510 96.287,138.360 96.800,138.265 96.925 C 138.063 97.191,137.701 99.511,137.789 99.976 C 137.821 100.150,137.754 100.355,137.639 100.431 C 137.308 100.651,136.617 107.096,136.896 107.374 C 137.056 107.534,137.130 107.342,137.130 106.762 C 137.130 106.297,137.222 105.738,137.335 105.521 C 137.522 105.162,138.068 101.012,138.130 99.487 C 138.144 99.143,138.224 98.861,138.309 98.861 C 138.394 98.861,138.534 98.297,138.620 97.608 C 138.706 96.919,138.853 96.355,138.947 96.355 C 139.040 96.355,139.178 95.832,139.254 95.192 C 139.330 94.553,139.489 93.912,139.607 93.769 C 139.726 93.625,139.898 93.098,139.989 92.597 C 140.081 92.096,140.295 91.483,140.465 91.236 C 140.635 90.989,140.774 90.554,140.774 90.268 C 140.774 89.983,140.877 89.749,141.002 89.749 C 141.128 89.749,141.230 89.593,141.230 89.401 C 141.230 88.792,143.602 83.405,143.986 83.141 C 144.079 83.077,144.226 82.744,144.312 82.401 C 144.398 82.058,144.560 81.777,144.672 81.777 C 144.783 81.777,144.875 81.687,144.875 81.578 C 144.875 81.407,145.254 80.709,146.355 78.854 C 146.878 77.973,148.884 75.033,149.161 74.740 C 149.327 74.566,149.629 74.168,149.833 73.857 C 150.274 73.184,151.193 72.096,152.677 70.490 C 153.272 69.845,153.759 69.200,153.759 69.055 C 153.759 68.911,153.847 68.793,153.954 68.793 C 154.062 68.793,154.498 68.425,154.922 67.976 C 155.781 67.068,155.677 67.165,157.387 65.664 C 160.241 63.159,160.024 63.337,161.520 62.290 C 162.200 61.814,162.859 61.310,162.984 61.170 C 163.109 61.030,163.622 60.668,164.123 60.367 C 164.624 60.066,165.085 59.762,165.148 59.693 C 165.211 59.623,165.542 59.422,165.885 59.246 C 166.227 59.069,166.710 58.736,166.957 58.506 C 167.204 58.275,167.551 58.087,167.727 58.087 C 167.904 58.087,168.292 57.903,168.591 57.679 C 169.174 57.242,172.732 55.465,174.601 54.678 C 175.228 54.414,175.897 54.112,176.089 54.007 C 176.282 53.902,176.768 53.744,177.171 53.656 C 177.575 53.567,177.904 53.417,177.904 53.323 C 177.904 53.228,178.032 53.140,178.189 53.127 C 178.603 53.092,180.466 52.632,180.866 52.466 C 181.593 52.164,185.106 51.268,185.592 51.261 C 185.874 51.256,186.105 51.164,186.105 51.054 C 186.105 50.945,187.026 50.784,188.152 50.696 C 189.278 50.608,190.258 50.441,190.329 50.325 C 190.401 50.209,190.966 50.114,191.585 50.114 C 192.434 50.114,192.711 50.030,192.711 49.772 C 192.711 49.428,192.650 49.410,192.027 49.572 M192.938 49.658 C 192.938 49.784,193.502 49.886,194.191 49.886 L 195.444 49.886 195.444 62.870 L 195.444 75.854 194.660 75.854 C 194.229 75.854,193.822 75.942,193.755 76.050 C 193.689 76.158,192.991 76.298,192.204 76.362 C 191.418 76.425,190.236 76.644,189.579 76.849 C 188.921 77.054,187.845 77.386,187.187 77.588 C 186.529 77.789,185.561 78.148,185.035 78.385 C 184.510 78.622,183.972 78.815,183.839 78.815 C 183.707 78.815,183.599 78.918,183.599 79.043 C 183.599 79.169,183.407 79.271,183.171 79.271 C 182.936 79.271,182.622 79.418,182.472 79.598 C 182.323 79.778,181.900 79.991,181.533 80.072 C 181.166 80.152,180.866 80.313,180.866 80.428 C 180.866 80.543,180.709 80.638,180.517 80.638 C 180.325 80.638,180.109 80.792,180.037 80.979 C 179.965 81.167,179.770 81.321,179.605 81.321 C 179.439 81.321,179.168 81.449,179.003 81.606 C 178.837 81.763,178.425 82.033,178.087 82.208 C 176.369 83.093,169.932 89.536,169.932 90.370 C 169.932 90.530,169.839 90.661,169.726 90.661 C 169.612 90.661,169.228 91.138,168.871 91.721 C 167.368 94.182,166.948 94.917,166.612 95.672 C 166.418 96.110,166.111 96.792,165.931 97.187 C 165.751 97.582,165.604 98.069,165.604 98.269 C 165.604 98.469,165.509 98.633,165.394 98.633 C 165.279 98.633,165.113 98.966,165.026 99.374 C 164.939 99.781,164.790 100.216,164.695 100.342 C 164.600 100.467,164.448 101.082,164.357 101.708 C 164.266 102.335,164.114 102.899,164.018 102.961 C 163.827 103.086,163.105 107.114,163.244 107.273 C 163.487 107.548,163.970 106.357,164.093 105.180 C 164.246 103.718,164.771 101.663,165.280 100.535 C 165.458 100.140,165.604 99.648,165.604 99.441 C 165.604 99.026,166.221 97.547,167.130 95.786 C 170.118 89.995,174.272 85.312,179.385 81.973 C 181.728 80.442,185.896 78.360,186.616 78.360 C 186.786 78.360,187.022 78.268,187.141 78.156 C 187.260 78.044,187.870 77.831,188.497 77.682 C 190.862 77.120,192.145 76.802,192.255 76.749 C 192.318 76.719,192.625 76.664,192.938 76.626 C 193.252 76.589,194.046 76.490,194.704 76.405 L 195.900 76.252 195.900 62.841 L 195.900 49.431 194.419 49.431 C 193.584 49.431,192.938 49.530,192.938 49.658 M201.367 62.841 L 201.367 76.252 202.563 76.405 C 203.220 76.490,204.015 76.589,204.328 76.626 C 204.641 76.664,204.949 76.719,205.011 76.749 C 205.122 76.802,206.404 77.120,208.770 77.682 C 209.396 77.831,210.006 78.044,210.125 78.156 C 210.244 78.268,210.481 78.360,210.650 78.360 C 211.519 78.360,216.850 81.134,218.895 82.650 C 222.669 85.448,227.099 90.175,228.502 92.901 C 228.674 93.235,228.875 93.559,228.949 93.622 C 229.194 93.829,231.435 98.528,231.435 98.834 C 231.435 98.999,231.585 99.457,231.769 99.852 C 232.123 100.614,232.453 101.828,232.863 103.872 C 233.002 104.562,233.200 105.184,233.304 105.255 C 233.409 105.327,233.476 105.583,233.454 105.825 C 233.358 106.860,233.486 107.426,233.723 107.018 C 233.977 106.584,233.491 103.368,232.917 101.677 C 232.728 101.122,232.574 100.516,232.574 100.331 C 232.574 99.998,232.517 99.858,231.836 98.519 C 231.644 98.144,231.416 97.503,231.329 97.096 C 231.242 96.688,231.085 96.355,230.979 96.355 C 230.874 96.355,230.720 96.048,230.638 95.672 C 230.555 95.296,230.393 94.989,230.278 94.989 C 230.163 94.989,230.068 94.899,230.068 94.790 C 230.068 94.680,229.807 94.142,229.487 93.594 C 227.847 90.783,227.372 90.087,226.367 89.028 C 226.022 88.664,225.740 88.294,225.739 88.204 C 225.737 88.045,222.411 84.756,221.062 83.580 C 220.691 83.256,219.772 82.590,219.021 82.100 C 218.269 81.610,217.603 81.149,217.540 81.076 C 217.477 81.003,216.913 80.695,216.287 80.392 C 215.661 80.089,215.097 79.784,215.034 79.715 C 214.806 79.461,212.961 78.588,212.654 78.588 C 212.480 78.588,212.047 78.439,211.693 78.258 C 211.148 77.979,210.759 77.817,210.023 77.563 C 209.960 77.541,209.755 77.463,209.567 77.390 C 209.379 77.316,208.815 77.188,208.314 77.104 C 207.813 77.021,207.281 76.852,207.132 76.728 C 206.983 76.605,206.083 76.446,205.132 76.374 C 204.181 76.302,203.348 76.155,203.282 76.049 C 203.216 75.942,202.861 75.854,202.492 75.854 L 201.822 75.854 201.822 62.870 L 201.822 49.886 203.075 49.886 C 203.764 49.886,204.328 49.784,204.328 49.658 C 204.328 49.530,203.683 49.431,202.847 49.431 L 201.367 49.431 201.367 62.841 M204.556 49.886 C 204.556 50.011,205.048 50.114,205.649 50.114 C 206.251 50.114,206.841 50.212,206.960 50.332 C 207.080 50.452,208.049 50.621,209.113 50.707 C 210.177 50.794,211.099 50.939,211.162 51.029 C 211.224 51.119,211.839 51.301,212.528 51.433 C 214.250 51.763,215.759 52.157,216.202 52.392 C 216.406 52.500,216.970 52.660,217.455 52.748 C 217.940 52.835,218.440 52.983,218.565 53.075 C 218.690 53.168,219.203 53.368,219.704 53.521 C 220.205 53.673,220.938 53.943,221.333 54.120 C 221.728 54.297,222.163 54.442,222.301 54.442 C 222.439 54.442,222.551 54.533,222.551 54.644 C 222.551 54.756,222.910 54.914,223.349 54.996 C 223.787 55.079,224.146 55.244,224.146 55.363 C 224.146 55.483,224.280 55.581,224.445 55.581 C 224.925 55.581,230.728 58.631,230.984 59.018 C 231.049 59.116,231.357 59.306,231.668 59.439 C 232.359 59.734,233.055 60.168,233.366 60.497 C 233.494 60.632,234.163 61.143,234.852 61.632 C 236.296 62.657,236.333 62.685,237.244 63.460 C 237.620 63.780,238.274 64.313,238.697 64.645 C 239.711 65.438,243.773 69.504,245.216 71.169 C 245.843 71.891,246.483 72.619,246.640 72.786 C 246.797 72.952,246.925 73.175,246.925 73.282 C 246.925 73.388,247.104 73.638,247.323 73.837 C 248.004 74.454,251.100 78.982,251.390 79.784 C 251.469 80.003,251.624 80.182,251.735 80.182 C 251.846 80.182,251.936 80.322,251.936 80.493 C 251.936 80.664,252.135 81.057,252.378 81.365 C 252.620 81.674,252.888 82.200,252.972 82.535 C 253.056 82.870,253.216 83.144,253.328 83.144 C 253.439 83.144,253.531 83.303,253.531 83.497 C 253.531 83.843,254.417 85.650,254.698 85.876 C 254.776 85.939,254.913 86.324,255.001 86.731 C 255.089 87.138,255.256 87.472,255.371 87.472 C 255.487 87.472,255.581 87.600,255.582 87.756 C 255.583 87.913,255.722 88.307,255.892 88.632 C 256.061 88.957,256.270 89.597,256.356 90.055 C 256.442 90.514,256.611 90.888,256.730 90.888 C 256.850 90.888,256.948 91.141,256.948 91.449 C 256.948 91.758,257.151 92.555,257.401 93.221 C 257.650 93.887,257.950 94.890,258.069 95.450 C 258.187 96.011,258.485 97.341,258.731 98.405 C 258.978 99.470,259.253 101.035,259.343 101.882 C 259.433 102.730,259.597 103.479,259.708 103.547 C 259.818 103.616,259.909 104.229,259.909 104.911 C 259.909 105.593,260.011 106.150,260.137 106.150 C 260.542 106.150,260.416 105.006,259.234 97.950 C 259.098 97.136,258.899 96.312,258.793 96.120 C 258.687 95.928,258.527 95.416,258.439 94.981 C 258.054 93.100,255.988 87.458,254.774 84.973 C 254.439 84.288,254.075 83.519,253.965 83.264 C 252.192 79.171,246.860 71.883,242.377 67.426 C 238.404 63.477,232.525 59.015,228.815 57.134 C 228.440 56.943,227.466 56.435,226.651 56.005 C 225.837 55.575,224.248 54.837,223.121 54.364 C 221.993 53.892,220.866 53.415,220.615 53.304 C 219.648 52.877,215.229 51.481,214.846 51.481 C 214.624 51.481,214.345 51.387,214.226 51.273 C 213.662 50.731,204.556 49.426,204.556 49.886 M195.038 81.704 C 195.369 81.792,195.438 82.160,195.493 84.127 L 195.558 86.446 198.690 86.510 L 201.822 86.573 201.822 84.175 C 201.822 81.877,202.084 81.138,202.601 81.975 C 202.668 82.083,203.337 82.242,204.088 82.327 C 204.839 82.412,205.510 82.573,205.579 82.685 C 205.649 82.798,206.179 82.960,206.759 83.047 C 207.338 83.134,208.079 83.345,208.405 83.515 C 208.731 83.685,209.110 83.825,209.247 83.825 C 209.797 83.829,215.258 86.778,215.261 87.073 C 215.261 87.167,215.411 87.244,215.592 87.244 C 215.774 87.244,216.005 87.374,216.105 87.534 C 216.205 87.694,216.551 87.992,216.873 88.196 C 217.816 88.795,221.465 92.505,222.209 93.622 C 222.584 94.186,222.958 94.698,223.038 94.761 C 223.119 94.823,223.411 95.310,223.688 95.843 C 223.965 96.375,224.284 96.811,224.397 96.811 C 224.509 96.811,224.601 97.009,224.601 97.250 C 224.601 97.492,224.730 97.825,224.887 97.991 C 225.385 98.516,227.107 103.245,227.107 104.088 C 227.107 104.330,227.198 104.585,227.308 104.653 C 227.419 104.722,227.580 105.341,227.666 106.030 C 227.829 107.334,228.246 107.990,228.246 106.942 C 228.246 105.989,227.031 101.417,226.431 100.114 C 226.316 99.863,225.963 99.073,225.647 98.358 C 225.126 97.181,223.235 94.120,222.172 92.735 C 220.176 90.132,215.920 86.608,212.756 84.938 C 212.192 84.640,211.698 84.323,211.658 84.233 C 211.617 84.143,211.233 84.003,210.803 83.923 C 210.374 83.842,210.023 83.703,210.023 83.614 C 210.023 83.462,207.961 82.795,205.353 82.103 C 204.727 81.937,203.573 81.739,202.790 81.664 L 201.367 81.526 201.367 83.816 L 201.367 86.105 198.633 86.105 L 195.900 86.105 195.900 83.827 L 195.900 81.549 195.273 81.575 C 194.903 81.591,194.807 81.644,195.038 81.704 M191.572 82.158 C 191.008 82.336,189.804 82.705,188.895 82.977 C 187.987 83.250,187.244 83.552,187.244 83.650 C 187.244 83.747,187.079 83.827,186.878 83.827 C 186.464 83.827,183.415 85.372,182.956 85.814 C 182.791 85.974,182.566 86.105,182.457 86.105 C 181.778 86.105,175.926 91.313,175.291 92.483 C 175.121 92.796,174.794 93.257,174.564 93.508 C 172.263 96.016,169.016 103.786,169.020 106.777 C 169.021 107.558,169.411 107.387,169.541 106.549 C 169.769 105.078,170.499 101.934,170.639 101.822 C 170.717 101.760,170.854 101.452,170.944 101.139 C 171.168 100.353,173.194 96.259,173.405 96.166 C 173.499 96.124,173.576 96.000,173.576 95.891 C 173.576 95.782,173.808 95.351,174.091 94.934 C 174.636 94.131,174.717 94.029,175.963 92.597 C 176.398 92.096,176.757 91.558,176.760 91.401 C 176.763 91.244,176.843 91.116,176.937 91.116 C 177.031 91.116,177.672 90.597,178.361 89.962 C 180.189 88.277,180.411 88.094,181.660 87.231 C 182.285 86.800,182.933 86.318,183.100 86.162 C 183.267 86.005,183.550 85.877,183.729 85.877 C 183.908 85.877,184.055 85.781,184.055 85.665 C 184.055 85.548,184.285 85.380,184.567 85.291 C 184.849 85.203,185.672 84.845,186.395 84.496 C 187.118 84.146,188.015 83.794,188.388 83.712 C 188.761 83.630,189.066 83.480,189.066 83.379 C 189.066 83.279,189.628 83.126,190.315 83.040 C 191.002 82.954,191.621 82.793,191.689 82.683 C 191.757 82.572,192.425 82.412,193.173 82.327 C 193.921 82.243,194.533 82.084,194.533 81.975 C 194.533 81.678,192.739 81.789,191.572 82.158 M197.548 97.096 L 197.608 104.214 198.633 104.214 L 199.658 104.214 199.719 97.096 L 199.779 89.977 198.633 89.977 L 197.488 89.977 197.548 97.096 M199.431 97.039 L 199.431 103.759 198.690 103.830 L 197.950 103.901 197.950 97.039 L 197.950 90.176 198.690 90.248 L 199.431 90.319 199.431 97.039 M260.137 106.948 C 260.137 107.136,260.239 107.289,260.364 107.289 C 260.490 107.289,260.592 107.136,260.592 106.948 C 260.592 106.760,260.490 106.606,260.364 106.606 C 260.239 106.606,260.137 106.760,260.137 106.948 M266.743 107.075 C 266.743 107.333,266.845 107.481,266.970 107.403 C 267.096 107.326,267.198 107.115,267.198 106.934 C 267.198 106.754,267.096 106.606,266.970 106.606 C 266.845 106.606,266.743 106.817,266.743 107.075 M174.452 109.695 C 174.573 113.440,174.765 113.212,171.490 113.212 L 168.730 113.212 168.882 114.885 C 168.965 115.805,169.080 116.754,169.138 116.992 C 169.195 117.231,169.366 117.938,169.518 118.565 C 169.669 119.191,169.901 119.779,170.033 119.871 C 170.165 119.963,170.205 120.040,170.121 120.042 C 169.849 120.048,170.415 121.703,171.446 123.918 C 174.947 131.439,182.076 137.674,189.749 139.925 C 192.762 140.809,193.394 140.917,193.394 140.547 C 193.394 140.421,193.144 140.319,192.838 140.319 C 192.532 140.319,192.224 140.225,192.153 140.111 C 192.083 139.997,191.615 139.834,191.115 139.749 C 188.957 139.385,183.250 136.774,182.045 135.601 C 181.880 135.439,181.649 135.308,181.533 135.308 C 181.416 135.308,181.138 135.128,180.915 134.909 C 180.692 134.690,180.114 134.203,179.632 133.827 C 178.731 133.125,177.396 131.774,176.049 130.201 C 175.629 129.710,175.105 129.121,174.886 128.891 C 174.667 128.662,174.487 128.387,174.487 128.280 C 174.487 128.174,174.193 127.680,173.833 127.182 C 173.472 126.685,173.107 126.055,173.020 125.782 C 172.933 125.508,172.775 125.285,172.668 125.285 C 172.561 125.285,172.406 124.977,172.323 124.601 C 172.241 124.226,172.087 123.918,171.982 123.918 C 171.876 123.918,171.723 123.610,171.640 123.235 C 171.558 122.859,171.396 122.551,171.280 122.551 C 171.165 122.551,171.070 122.321,171.069 122.039 C 171.068 121.757,170.919 121.240,170.736 120.890 C 170.554 120.540,170.341 119.874,170.264 119.410 C 170.187 118.945,170.064 118.411,169.991 118.223 C 169.917 118.035,169.839 117.830,169.817 117.768 C 169.795 117.705,169.696 117.116,169.597 116.458 C 169.498 115.800,169.349 115.262,169.265 115.262 C 169.181 115.262,169.154 114.903,169.205 114.465 L 169.298 113.667 171.885 113.667 C 174.209 113.667,174.495 113.623,174.707 113.227 C 175.062 112.564,175.018 107.289,174.658 107.289 C 174.444 107.289,174.393 107.880,174.452 109.695 M178.177 110.421 L 178.246 111.503 185.292 111.564 C 190.777 111.611,192.378 111.560,192.521 111.336 C 192.856 110.808,192.744 109.339,192.369 109.339 C 192.122 109.339,192.027 109.593,192.027 110.251 L 192.027 111.162 185.284 111.162 L 178.540 111.162 178.627 110.251 C 178.689 109.600,178.627 109.339,178.410 109.339 C 178.191 109.339,178.126 109.638,178.177 110.421 M204.600 110.421 L 204.670 111.503 211.845 111.503 L 219.021 111.503 219.090 110.421 C 219.154 109.419,219.121 109.341,218.634 109.357 C 218.346 109.367,218.237 109.427,218.394 109.490 C 218.551 109.553,218.679 109.955,218.679 110.383 L 218.679 111.162 211.845 111.162 L 205.011 111.162 205.011 110.524 C 205.011 110.173,205.134 109.763,205.285 109.613 C 205.497 109.400,205.444 109.339,205.044 109.339 C 204.574 109.339,204.537 109.430,204.600 110.421 M222.602 112.984 C 222.665 113.550,222.681 113.554,225.261 113.618 L 227.857 113.683 227.722 115.761 C 227.648 116.904,227.494 117.900,227.380 117.974 C 227.266 118.049,227.099 118.519,227.010 119.021 C 226.738 120.535,224.454 125.917,223.626 126.990 C 223.529 127.117,223.042 127.785,222.545 128.474 C 222.048 129.163,221.359 130.047,221.014 130.439 C 220.669 130.831,220.182 131.395,219.932 131.692 C 219.681 131.989,218.912 132.692,218.223 133.254 C 217.534 133.816,216.919 134.335,216.856 134.406 C 216.472 134.844,214.461 136.219,214.204 136.219 C 214.034 136.219,213.895 136.297,213.895 136.392 C 213.895 136.488,213.703 136.667,213.469 136.791 C 212.327 137.393,209.898 138.557,209.689 138.603 C 209.559 138.631,209.165 138.773,208.812 138.917 C 208.459 139.062,208.030 139.180,207.857 139.180 C 207.685 139.180,207.488 139.271,207.419 139.381 C 207.351 139.492,206.835 139.652,206.272 139.736 C 205.710 139.821,205.190 139.986,205.117 140.104 C 205.044 140.222,204.663 140.319,204.269 140.319 C 203.739 140.319,203.620 140.385,203.810 140.575 C 204.080 140.845,207.174 140.244,207.620 139.834 C 207.739 139.725,208.026 139.636,208.259 139.636 C 209.150 139.636,214.970 136.733,215.224 136.162 C 215.266 136.068,215.399 135.991,215.521 135.991 C 216.658 135.991,222.120 130.317,224.071 127.107 C 226.364 123.336,227.780 119.425,228.236 115.604 C 228.341 114.727,228.499 113.830,228.588 113.610 C 228.737 113.244,228.527 113.212,225.961 113.212 C 223.576 113.212,223.125 113.154,222.854 112.813 C 222.564 112.447,222.543 112.461,222.602 112.984 M275.456 113.155 L 266.743 113.217 266.743 114.481 C 266.743 115.265,266.829 115.691,266.970 115.604 C 267.096 115.526,267.198 115.060,267.198 114.568 L 267.198 113.673 275.778 113.613 C 282.397 113.567,284.380 113.488,284.453 113.269 C 284.506 113.112,284.463 113.008,284.358 113.038 C 284.254 113.068,280.248 113.120,275.456 113.155 M112.756 113.440 C 112.961 113.572,116.498 113.662,121.583 113.664 L 130.068 113.667 130.076 115.205 C 130.091 118.055,131.709 128.140,132.355 129.414 C 132.458 129.618,132.613 130.156,132.698 130.610 C 132.783 131.064,132.932 131.435,133.029 131.435 C 133.126 131.435,133.275 131.897,133.360 132.461 C 133.444 133.026,133.660 133.769,133.840 134.113 C 134.019 134.457,134.166 134.911,134.167 135.123 C 134.168 135.335,134.257 135.563,134.365 135.630 C 134.473 135.697,134.692 136.215,134.850 136.782 C 135.009 137.349,135.228 137.813,135.337 137.813 C 135.446 137.813,135.535 138.015,135.535 138.262 C 135.535 138.694,136.379 140.540,136.684 140.774 C 136.765 140.837,136.901 141.170,136.985 141.515 C 137.070 141.859,137.239 142.141,137.362 142.141 C 137.485 142.141,137.585 142.300,137.585 142.495 C 137.585 142.810,138.433 144.582,138.724 144.874 C 138.909 145.060,139.391 145.849,139.768 146.583 C 140.324 147.668,141.425 149.426,141.692 149.658 C 141.765 149.721,142.057 150.157,142.343 150.626 C 142.628 151.096,142.956 151.481,143.071 151.481 C 143.186 151.481,143.280 151.618,143.280 151.786 C 143.280 151.954,143.488 152.339,143.742 152.640 C 143.996 152.942,144.739 153.851,145.393 154.661 C 146.048 155.470,147.019 156.570,147.551 157.104 C 148.084 157.638,148.519 158.127,148.519 158.191 C 148.519 158.343,151.422 161.276,151.572 161.276 C 151.636 161.276,152.128 161.713,152.666 162.248 C 153.204 162.784,154.208 163.680,154.897 164.242 C 155.587 164.803,156.185 165.339,156.226 165.433 C 156.268 165.527,156.451 165.604,156.632 165.604 C 156.813 165.604,157.021 165.757,157.093 165.945 C 157.165 166.133,157.310 166.287,157.415 166.287 C 157.521 166.287,158.284 166.800,159.112 167.426 C 159.939 168.052,160.706 168.565,160.816 168.565 C 160.926 168.565,161.151 168.698,161.316 168.860 C 161.765 169.300,164.372 170.843,164.665 170.843 C 164.806 170.843,164.921 170.920,164.922 171.014 C 164.923 171.108,165.154 171.292,165.435 171.422 C 165.715 171.553,166.458 171.934,167.084 172.268 C 168.886 173.228,171.640 174.487,171.938 174.487 C 172.087 174.487,172.210 174.578,172.210 174.689 C 172.210 174.800,172.671 174.960,173.235 175.045 C 173.798 175.130,174.260 175.295,174.260 175.413 C 174.260 175.530,174.388 175.627,174.544 175.628 C 174.701 175.629,175.103 175.772,175.437 175.946 C 175.771 176.121,176.463 176.334,176.975 176.421 C 177.486 176.507,177.904 176.659,177.904 176.760 C 177.904 176.860,178.391 177.014,178.986 177.103 C 179.581 177.191,180.171 177.341,180.296 177.435 C 180.678 177.722,183.835 178.406,184.176 178.275 C 184.352 178.207,184.548 178.237,184.612 178.340 C 184.676 178.443,185.166 178.607,185.701 178.704 C 186.236 178.800,186.828 178.920,187.016 178.970 C 188.033 179.240,190.574 179.485,192.426 179.491 C 193.674 179.496,194.533 179.592,194.533 179.727 C 194.533 179.852,194.738 179.954,194.989 179.954 C 195.435 179.954,195.444 180.107,195.448 187.870 C 195.450 192.587,195.540 195.924,195.672 196.128 C 195.817 196.352,195.894 193.544,195.896 187.977 C 195.899 181.387,195.836 179.462,195.615 179.382 C 195.458 179.325,194.333 179.245,193.115 179.205 C 191.897 179.164,190.829 179.060,190.742 178.973 C 190.656 178.886,190.187 178.815,189.702 178.815 C 189.216 178.815,188.080 178.670,187.177 178.493 C 186.274 178.316,185.125 178.103,184.624 178.020 C 184.123 177.937,183.252 177.725,182.688 177.549 C 182.124 177.374,181.407 177.192,181.093 177.146 C 180.780 177.101,180.370 177.005,180.182 176.934 C 179.994 176.863,179.021 176.545,178.018 176.228 C 177.016 175.910,175.632 175.433,174.943 175.166 C 174.254 174.899,173.434 174.596,173.121 174.493 C 171.874 174.081,166.608 171.620,166.287 171.298 C 166.224 171.236,165.609 170.887,164.920 170.522 C 163.741 169.899,160.660 167.892,158.272 166.190 C 154.465 163.479,149.716 159.042,146.525 155.217 C 143.910 152.082,142.080 149.486,139.795 145.672 C 139.644 145.421,139.468 145.165,139.403 145.103 C 139.033 144.746,135.365 136.957,135.090 135.940 C 135.065 135.850,134.844 135.235,134.598 134.574 C 133.847 132.554,133.313 130.905,133.141 130.068 C 133.051 129.630,132.899 129.169,132.803 129.043 C 132.645 128.836,132.289 127.265,131.966 125.342 C 131.897 124.935,131.759 124.601,131.659 124.601 C 131.559 124.601,131.531 124.398,131.596 124.149 C 131.661 123.900,131.640 123.516,131.548 123.295 C 131.457 123.074,131.344 122.534,131.297 122.096 C 131.251 121.657,131.100 120.427,130.962 119.362 C 130.726 117.542,130.645 116.494,130.560 114.180 L 130.524 113.212 121.469 113.215 C 115.539 113.218,112.532 113.295,112.756 113.440 M136.673 114.294 C 136.671 115.989,137.411 121.966,137.641 122.120 C 137.755 122.196,137.821 122.401,137.789 122.576 C 137.701 123.041,138.063 125.361,138.265 125.626 C 138.360 125.752,138.507 126.264,138.593 126.765 C 138.770 127.797,140.295 132.795,140.540 133.144 C 140.628 133.269,140.935 134.013,141.222 134.798 C 142.697 138.833,147.149 146.412,150.191 150.064 C 152.684 153.059,156.582 157.052,158.538 158.615 C 159.350 159.264,160.178 159.949,160.379 160.137 C 160.580 160.325,160.979 160.632,161.264 160.820 C 161.550 161.008,162.207 161.479,162.725 161.866 C 163.930 162.766,166.086 164.160,167.084 164.684 C 167.335 164.816,168.155 165.278,168.907 165.712 C 169.658 166.146,170.837 166.765,171.526 167.086 C 172.215 167.408,172.953 167.768,173.167 167.885 C 173.380 168.003,174.507 168.467,175.672 168.915 C 176.837 169.364,178.149 169.873,178.588 170.047 C 179.026 170.221,179.744 170.439,180.182 170.533 C 181.139 170.737,181.120 170.732,181.549 170.910 C 182.072 171.128,185.777 171.982,186.196 171.982 C 186.400 171.982,186.745 172.081,186.962 172.202 C 187.434 172.465,190.653 172.875,191.058 172.724 C 191.665 172.496,191.047 172.249,189.475 172.091 C 188.571 172.000,187.674 171.841,187.481 171.737 C 187.288 171.633,186.438 171.484,185.592 171.405 C 184.747 171.326,184.055 171.185,184.055 171.090 C 184.055 170.996,183.927 170.912,183.770 170.903 C 183.613 170.894,182.665 170.661,181.663 170.385 C 180.661 170.109,179.584 169.834,179.271 169.773 C 178.958 169.712,178.379 169.518,177.984 169.341 C 177.589 169.165,177.162 169.021,177.035 169.021 C 176.907 169.021,176.769 168.938,176.727 168.838 C 176.686 168.737,175.941 168.417,175.072 168.126 C 174.203 167.836,173.013 167.303,172.427 166.942 C 171.841 166.582,171.200 166.287,171.002 166.287 C 170.804 166.287,170.583 166.191,170.510 166.074 C 170.437 165.956,169.842 165.590,169.187 165.260 C 167.167 164.241,166.644 163.943,166.330 163.629 C 166.163 163.462,165.880 163.326,165.701 163.326 C 165.522 163.326,165.376 163.223,165.376 163.098 C 165.376 162.973,165.227 162.870,165.045 162.870 C 164.864 162.870,164.633 162.742,164.533 162.585 C 164.433 162.428,163.890 161.992,163.326 161.617 C 162.762 161.242,162.249 160.884,162.187 160.821 C 162.124 160.758,161.714 160.454,161.276 160.147 C 160.357 159.502,160.178 159.357,159.155 158.428 C 158.741 158.052,157.960 157.386,157.421 156.948 C 155.262 155.193,151.342 150.858,149.089 147.734 C 148.838 147.386,148.505 146.967,148.349 146.802 C 148.192 146.637,148.064 146.408,148.064 146.293 C 148.064 146.178,147.859 145.899,147.608 145.672 C 147.358 145.445,147.153 145.122,147.153 144.953 C 147.153 144.785,147.051 144.647,146.928 144.647 C 146.804 144.647,146.553 144.314,146.369 143.907 C 146.185 143.499,145.728 142.654,145.354 142.027 C 144.403 140.437,142.191 135.929,142.013 135.216 C 141.931 134.890,141.784 134.624,141.686 134.624 C 141.589 134.624,141.439 134.253,141.354 133.799 C 141.269 133.345,141.118 132.807,141.020 132.603 C 140.397 131.310,140.102 130.546,139.970 129.882 C 139.888 129.467,139.677 128.852,139.502 128.515 C 139.326 128.179,139.182 127.628,139.181 127.291 C 139.181 126.954,139.088 126.621,138.975 126.551 C 138.862 126.482,138.698 125.809,138.611 125.057 C 138.523 124.305,138.385 123.690,138.303 123.690 C 138.222 123.690,138.145 123.460,138.133 123.178 C 138.066 121.597,137.521 117.368,137.341 117.030 C 137.225 116.813,137.130 115.967,137.130 115.151 L 137.130 113.667 150.067 113.667 L 163.005 113.667 163.306 116.002 C 163.472 117.286,163.742 118.747,163.906 119.248 C 164.071 119.749,164.271 120.569,164.351 121.071 C 164.432 121.572,164.587 122.187,164.696 122.437 C 164.806 122.688,165.106 123.374,165.363 123.962 C 165.621 124.551,165.831 125.114,165.830 125.215 C 165.829 125.413,167.462 128.741,167.653 128.929 C 167.716 128.992,167.921 129.314,168.109 129.645 C 169.417 131.948,171.826 134.961,173.893 136.878 C 174.381 137.330,175.201 138.090,175.715 138.567 C 176.508 139.302,177.550 140.032,180.752 142.093 C 181.002 142.254,181.489 142.507,181.834 142.655 C 182.178 142.803,182.460 143.005,182.460 143.102 C 182.460 143.200,182.573 143.280,182.710 143.280 C 182.950 143.280,183.525 143.511,185.535 144.415 C 186.928 145.041,188.121 145.378,188.378 145.219 C 188.506 145.140,188.610 145.162,188.610 145.267 C 188.610 145.589,190.653 146.085,193.052 146.346 L 195.330 146.594 195.389 159.630 L 195.448 172.665 193.496 172.665 C 192.189 172.665,191.594 172.744,191.693 172.905 C 191.774 173.037,192.421 173.134,193.130 173.122 C 193.839 173.110,194.727 173.130,195.103 173.167 L 195.786 173.235 195.845 159.922 C 195.877 152.600,195.819 146.525,195.716 146.422 C 195.613 146.319,194.946 146.210,194.235 146.181 C 193.524 146.152,192.941 146.064,192.940 145.986 C 192.939 145.908,192.327 145.775,191.579 145.691 C 190.831 145.606,190.166 145.451,190.101 145.346 C 190.036 145.241,189.520 145.086,188.954 145.001 C 188.388 144.916,187.643 144.700,187.299 144.520 C 186.956 144.341,186.545 144.194,186.386 144.193 C 186.228 144.192,185.921 144.092,185.703 143.972 C 185.486 143.851,184.795 143.540,184.169 143.280 C 183.542 143.021,182.876 142.714,182.688 142.598 C 182.500 142.482,181.808 142.106,181.150 141.761 C 180.493 141.417,179.954 141.054,179.954 140.955 C 179.954 140.856,179.808 140.774,179.629 140.774 C 179.450 140.774,179.168 140.646,179.003 140.490 C 178.837 140.333,178.244 139.897,177.685 139.522 C 175.574 138.103,170.645 132.913,169.519 130.923 C 169.182 130.328,168.830 129.841,168.736 129.841 C 168.642 129.841,168.565 129.743,168.565 129.623 C 168.565 129.503,168.267 128.899,167.902 128.281 C 167.211 127.108,165.604 123.536,165.604 123.172 C 165.604 123.056,165.463 122.639,165.291 122.244 C 164.854 121.242,164.297 119.027,164.108 117.540 C 164.020 116.851,163.852 116.165,163.734 116.016 C 163.617 115.867,163.540 115.559,163.563 115.332 C 163.587 115.106,163.594 114.536,163.580 114.066 L 163.554 113.212 150.114 113.212 L 136.674 113.212 136.673 114.294 M233.614 113.838 C 233.539 114.183,233.461 115.105,233.441 115.888 C 233.420 116.671,233.334 117.312,233.248 117.312 C 233.162 117.312,233.027 117.872,232.946 118.556 C 232.866 119.241,232.707 120.035,232.594 120.322 C 232.481 120.608,232.162 121.560,231.886 122.437 C 231.214 124.572,229.353 128.446,228.058 130.410 C 226.691 132.482,226.924 132.179,225.001 134.391 C 221.845 138.021,218.056 140.921,214.009 142.804 C 212.882 143.329,211.781 143.856,211.563 143.975 C 211.346 144.094,211.038 144.192,210.880 144.193 C 210.722 144.194,210.311 144.341,209.967 144.520 C 209.623 144.700,208.879 144.916,208.313 145.001 C 207.747 145.086,207.231 145.241,207.166 145.346 C 207.101 145.451,206.436 145.606,205.688 145.691 C 204.252 145.853,203.811 146.243,205.068 146.239 C 205.711 146.236,208.191 145.615,210.364 144.913 C 211.096 144.677,212.421 144.140,213.588 143.608 C 213.983 143.428,214.418 143.280,214.556 143.280 C 214.694 143.280,214.806 143.200,214.806 143.102 C 214.806 143.005,215.088 142.802,215.433 142.651 C 216.314 142.267,218.083 141.202,218.242 140.960 C 218.314 140.849,218.694 140.583,219.085 140.368 C 219.927 139.905,221.042 139.012,222.631 137.528 C 223.268 136.933,223.870 136.446,223.968 136.446 C 224.066 136.446,224.146 136.352,224.146 136.237 C 224.146 136.121,224.530 135.625,225.000 135.135 C 226.597 133.467,229.157 129.995,229.157 129.498 C 229.157 129.311,229.238 129.157,229.337 129.157 C 229.544 129.157,230.752 126.853,230.752 126.458 C 230.752 126.314,230.854 126.196,230.979 126.196 C 231.105 126.196,231.207 126.028,231.207 125.822 C 231.207 125.617,231.426 124.976,231.694 124.399 C 232.410 122.854,232.532 122.520,232.701 121.640 C 232.785 121.202,232.933 120.740,233.030 120.615 C 233.252 120.327,233.790 117.242,233.811 116.135 C 233.820 115.676,233.904 115.223,233.998 115.129 C 234.092 115.035,234.169 114.668,234.169 114.313 L 234.169 113.667 247.153 113.667 L 260.137 113.667 260.137 114.692 C 260.137 115.256,260.239 115.718,260.364 115.718 C 260.490 115.718,260.592 115.154,260.592 114.465 L 260.592 113.212 247.171 113.212 L 233.749 113.212 233.614 113.838 M197.548 123.507 L 197.608 130.866 198.633 130.866 L 199.658 130.866 199.658 123.576 L 199.658 116.287 198.573 116.217 L 197.488 116.148 197.548 123.507 M259.909 117.270 C 259.909 117.923,259.811 118.635,259.691 118.853 C 259.571 119.070,259.367 120.120,259.238 121.185 C 258.981 123.299,258.510 125.722,258.286 126.082 C 258.208 126.207,258.075 126.792,257.989 127.382 C 257.904 127.971,257.675 128.772,257.481 129.161 C 257.287 129.550,257.074 130.272,257.008 130.765 C 256.942 131.259,256.799 131.663,256.690 131.663 C 256.581 131.663,256.492 131.827,256.492 132.027 C 256.492 132.382,256.216 133.088,255.332 134.991 C 255.093 135.506,254.897 136.095,254.897 136.301 C 254.897 136.506,254.806 136.674,254.694 136.674 C 254.583 136.674,254.428 136.928,254.350 137.239 C 254.272 137.550,253.914 138.303,253.554 138.913 C 253.194 139.523,252.823 140.263,252.730 140.558 C 252.636 140.853,252.419 141.235,252.248 141.407 C 252.076 141.578,251.936 141.865,251.936 142.044 C 251.936 142.223,251.834 142.369,251.708 142.369 C 251.583 142.369,251.481 142.507,251.481 142.676 C 251.481 142.845,251.276 143.219,251.025 143.508 C 250.774 143.797,250.569 144.124,250.569 144.236 C 250.569 144.347,250.465 144.562,250.337 144.713 C 249.425 145.795,249.203 146.114,249.203 146.340 C 249.203 146.480,249.023 146.761,248.804 146.962 C 248.231 147.489,247.610 148.345,247.599 148.623 C 247.593 148.754,247.286 149.113,246.915 149.420 C 246.545 149.727,246.241 150.068,246.241 150.178 C 246.241 150.287,245.960 150.668,245.615 151.024 C 245.271 151.380,244.579 152.125,244.077 152.680 C 242.380 154.560,241.503 155.465,240.853 156.009 C 240.497 156.308,239.611 157.077,238.885 157.718 C 238.159 158.359,237.244 159.162,236.851 159.502 C 236.458 159.841,234.950 160.915,233.501 161.888 C 232.051 162.861,230.730 163.788,230.565 163.947 C 230.399 164.107,230.126 164.237,229.957 164.237 C 229.789 164.237,229.617 164.314,229.575 164.408 C 229.533 164.502,228.576 165.036,227.449 165.595 C 226.321 166.154,225.346 166.684,225.282 166.773 C 225.219 166.862,224.885 167.005,224.542 167.091 C 224.199 167.177,223.918 167.339,223.918 167.451 C 223.918 167.562,223.685 167.654,223.399 167.654 C 223.114 167.654,222.678 167.794,222.431 167.966 C 222.184 168.138,221.649 168.351,221.241 168.440 C 220.834 168.529,220.501 168.684,220.501 168.785 C 220.501 168.887,220.142 169.037,219.704 169.119 C 219.265 169.202,218.907 169.367,218.907 169.486 C 218.907 169.606,218.647 169.704,218.330 169.704 C 218.013 169.704,217.396 169.853,216.959 170.036 C 216.522 170.218,216.114 170.365,216.052 170.362 C 215.696 170.344,213.286 170.948,213.075 171.108 C 212.937 171.213,212.168 171.364,211.366 171.444 C 210.565 171.523,209.804 171.671,209.675 171.771 C 209.546 171.872,208.646 172.026,207.675 172.114 C 206.704 172.202,205.855 172.362,205.789 172.469 C 205.722 172.577,204.802 172.665,203.743 172.665 L 201.819 172.665 201.877 159.624 L 201.936 146.583 203.018 146.514 C 203.613 146.476,204.100 146.334,204.100 146.199 C 204.100 146.043,203.791 146.005,203.246 146.095 C 202.776 146.173,202.161 146.238,201.879 146.239 L 201.367 146.241 201.367 159.803 L 201.367 173.364 201.928 173.289 C 202.236 173.248,202.560 173.143,202.647 173.056 C 202.734 172.969,203.351 172.962,204.018 173.040 C 204.798 173.132,205.344 173.089,205.547 172.921 C 205.720 172.777,206.055 172.685,206.291 172.715 C 207.058 172.814,210.244 172.405,210.376 172.190 C 210.447 172.076,210.716 171.982,210.973 171.982 C 212.061 171.982,216.150 170.878,219.590 169.656 C 221.716 168.900,222.062 168.758,224.679 167.560 C 225.661 167.110,226.498 166.743,226.539 166.743 C 226.609 166.743,229.758 164.946,230.524 164.469 C 230.712 164.352,231.327 163.977,231.891 163.636 C 237.494 160.246,244.530 153.674,248.540 148.088 C 249.934 146.145,251.253 144.176,251.253 144.036 C 251.253 143.953,251.394 143.724,251.567 143.526 C 252.311 142.673,255.755 135.834,256.279 134.169 C 256.377 133.855,256.679 133.035,256.949 132.346 C 257.506 130.929,258.010 129.298,258.358 127.790 C 258.488 127.227,258.676 126.663,258.774 126.538 C 258.873 126.412,259.028 125.695,259.118 124.943 C 259.209 124.191,259.361 123.423,259.458 123.235 C 259.842 122.484,260.454 116.627,260.176 116.350 C 259.972 116.145,259.909 116.360,259.909 117.270 M266.441 117.255 C 266.378 117.725,266.325 118.314,266.324 118.565 C 266.319 119.763,265.234 126.236,264.912 126.993 C 264.806 127.244,264.650 127.910,264.566 128.474 C 264.482 129.038,264.334 129.601,264.237 129.727 C 264.141 129.852,263.991 130.313,263.903 130.752 C 263.358 133.500,259.998 141.366,257.702 145.268 C 256.262 147.716,253.097 152.433,252.616 152.847 C 252.544 152.910,252.015 153.577,251.442 154.330 C 247.339 159.718,239.099 166.714,232.357 170.534 C 230.219 171.745,225.053 174.260,224.702 174.260 C 224.622 174.260,224.233 174.409,223.839 174.591 C 222.295 175.304,218.258 176.623,216.173 177.096 C 215.233 177.309,214.287 177.578,214.069 177.694 C 213.852 177.809,213.447 177.904,213.169 177.904 C 212.796 177.904,212.732 177.971,212.922 178.161 C 213.181 178.420,216.030 177.909,216.885 177.451 C 217.089 177.342,217.643 177.179,218.117 177.091 C 218.591 177.002,219.244 176.790,219.569 176.621 C 219.894 176.451,220.384 176.312,220.659 176.311 C 220.933 176.310,221.221 176.207,221.298 176.082 C 221.376 175.957,221.613 175.851,221.824 175.846 C 222.036 175.842,222.620 175.641,223.121 175.399 C 223.622 175.157,224.161 174.955,224.320 174.951 C 224.478 174.947,224.786 174.850,225.003 174.735 C 225.221 174.621,226.219 174.150,227.221 173.689 C 228.223 173.228,229.505 172.599,230.068 172.291 C 230.632 171.984,231.375 171.624,231.720 171.493 C 232.064 171.361,232.346 171.161,232.346 171.048 C 232.346 170.935,232.493 170.843,232.672 170.843 C 232.851 170.843,233.136 170.715,233.307 170.558 C 233.635 170.257,234.197 169.915,235.598 169.163 C 236.071 168.910,236.635 168.543,236.851 168.349 C 237.067 168.154,237.538 167.843,237.897 167.658 C 238.257 167.472,238.769 167.089,239.036 166.807 C 239.303 166.526,239.612 166.293,239.723 166.291 C 239.834 166.289,240.162 166.031,240.453 165.718 C 240.743 165.404,241.040 165.148,241.112 165.148 C 241.566 165.148,249.667 157.409,250.921 155.777 C 251.052 155.606,251.653 154.852,252.255 154.100 C 252.858 153.349,253.520 152.522,253.726 152.265 C 254.538 151.247,255.125 150.349,255.125 150.123 C 255.125 149.993,255.215 149.886,255.325 149.886 C 255.553 149.886,258.087 145.722,258.087 145.348 C 258.087 145.213,258.169 145.103,258.269 145.103 C 258.470 145.103,261.364 139.410,261.628 138.497 C 261.719 138.183,261.862 137.876,261.946 137.813 C 262.031 137.751,262.337 136.982,262.627 136.105 C 262.916 135.228,263.234 134.408,263.333 134.282 C 263.432 134.157,263.588 133.645,263.680 133.144 C 263.772 132.642,263.914 132.181,263.996 132.118 C 264.281 131.900,264.981 129.189,264.844 128.833 C 264.769 128.635,264.783 128.474,264.877 128.474 C 265.151 128.474,265.790 125.991,265.961 124.260 C 266.048 123.383,266.215 122.604,266.332 122.528 C 266.558 122.383,266.901 116.401,266.683 116.401 C 266.613 116.401,266.503 116.785,266.441 117.255 M199.406 116.989 C 199.620 117.547,199.562 129.915,199.344 130.259 C 199.238 130.427,198.907 130.529,198.607 130.487 L 198.064 130.410 198.003 123.519 L 197.943 116.629 198.606 116.629 C 198.999 116.629,199.324 116.775,199.406 116.989 M195.602 134.086 C 195.515 134.173,195.444 135.662,195.444 137.396 L 195.444 140.547 194.533 140.547 C 194.032 140.547,193.622 140.649,193.622 140.774 C 193.622 140.900,194.134 141.002,194.761 141.002 L 195.900 141.002 195.900 137.699 L 195.900 134.396 198.633 134.396 L 201.367 134.396 201.367 137.699 L 201.367 141.002 202.392 141.002 C 202.956 141.002,203.417 140.900,203.417 140.774 C 203.417 140.649,203.061 140.547,202.626 140.547 L 201.835 140.547 201.772 137.301 L 201.708 134.055 198.734 133.991 C 197.099 133.957,195.689 133.999,195.602 134.086 M210.559 178.358 C 210.290 178.467,209.316 178.627,208.395 178.715 C 207.474 178.803,206.620 178.933,206.498 179.004 C 206.375 179.075,205.299 179.166,204.106 179.206 C 202.912 179.246,201.808 179.325,201.651 179.382 C 201.431 179.461,201.367 181.381,201.367 187.933 C 201.367 193.508,201.444 196.334,201.595 196.241 C 201.739 196.152,201.822 193.164,201.822 188.028 C 201.822 180.106,201.831 179.954,202.278 179.954 C 202.528 179.954,202.733 179.867,202.733 179.760 C 202.733 179.653,204.194 179.503,205.979 179.426 C 207.765 179.349,209.636 179.171,210.137 179.030 C 210.638 178.889,211.381 178.720,211.788 178.655 C 212.195 178.591,212.528 178.447,212.528 178.335 C 212.528 178.080,211.210 178.096,210.559 178.358 " stroke="none" fill="#7086ab" fill-rule="evenodd"></path><path id="path1" d="M196.128 33.571 C 196.128 40.839,196.062 43.048,195.843 43.223 C 195.686 43.347,194.174 43.568,192.483 43.714 C 190.792 43.860,189.151 44.025,188.838 44.081 C 188.525 44.136,187.705 44.278,187.016 44.397 C 173.233 46.771,160.831 53.181,150.788 63.123 C 144.040 69.802,137.745 79.428,135.088 87.130 C 134.138 89.885,133.744 91.090,133.376 92.369 C 133.159 93.121,132.886 94.043,132.768 94.419 C 132.213 96.183,131.304 101.593,130.976 105.078 C 130.861 106.305,130.706 107.407,130.632 107.527 C 130.413 107.881,112.823 107.815,112.679 107.460 C 112.616 107.304,112.556 108.481,112.546 110.077 L 112.528 112.979 121.583 113.038 L 130.638 113.098 130.896 116.287 C 131.303 121.316,132.334 127.149,133.332 130.068 C 133.396 130.256,133.728 131.333,134.069 132.460 C 134.411 133.588,134.778 134.608,134.885 134.727 C 134.992 134.846,135.080 135.082,135.080 135.252 C 135.080 135.421,135.290 136.042,135.548 136.630 C 135.805 137.218,136.103 137.904,136.209 138.155 C 138.373 143.261,142.861 150.681,145.936 154.237 C 151.297 160.436,155.664 164.397,160.820 167.739 C 161.760 168.348,162.806 169.039,163.146 169.275 C 163.485 169.511,163.820 169.704,163.891 169.704 C 163.961 169.704,164.401 169.944,164.868 170.237 C 166.254 171.106,170.123 173.018,172.323 173.921 C 173.451 174.383,174.579 174.851,174.829 174.962 C 176.287 175.603,181.063 176.993,183.713 177.547 C 184.465 177.704,185.285 177.896,185.535 177.974 C 186.309 178.214,193.213 179.042,194.448 179.043 C 196.222 179.044,196.147 178.629,196.076 188.014 L 196.014 196.356 198.576 196.355 L 201.139 196.355 201.142 187.984 C 201.144 183.380,201.221 179.500,201.313 179.362 C 201.406 179.223,202.549 179.047,203.872 178.966 C 219.358 178.028,234.865 170.952,246.348 159.586 C 249.073 156.889,250.648 155.116,252.737 152.393 C 253.854 150.937,256.712 146.682,257.021 146.014 C 257.108 145.826,257.397 145.313,257.664 144.875 C 258.289 143.845,260.385 139.720,260.795 138.708 C 260.970 138.278,261.307 137.489,261.544 136.953 C 262.071 135.764,263.895 130.341,264.242 128.929 C 264.711 127.027,265.392 123.813,265.618 122.437 C 265.741 121.686,265.884 120.814,265.936 120.501 C 266.009 120.056,266.488 113.926,266.510 113.155 C 266.513 113.061,270.402 112.984,275.152 112.984 C 285.585 112.984,284.510 113.301,284.510 110.226 L 284.510 107.745 275.672 107.745 C 265.672 107.745,266.287 107.871,266.288 105.820 C 266.289 103.490,264.502 93.565,263.784 91.913 C 263.676 91.663,263.361 90.740,263.086 89.863 C 255.861 66.829,234.605 48.534,210.251 44.387 C 209.562 44.269,208.741 44.127,208.428 44.069 C 208.115 44.012,206.424 43.849,204.670 43.707 C 202.856 43.560,201.407 43.339,201.310 43.193 C 201.217 43.053,201.166 38.710,201.197 33.542 L 201.253 24.146 198.690 24.146 L 196.128 24.146 196.128 33.571 M196.072 62.743 C 196.108 70.755,196.046 76.254,195.920 76.380 C 195.804 76.496,194.855 76.689,193.812 76.808 C 191.718 77.048,191.390 77.101,190.888 77.279 C 190.700 77.345,189.727 77.623,188.724 77.895 C 186.720 78.440,186.807 78.408,184.055 79.640 C 178.176 82.273,173.198 86.550,169.393 92.238 C 168.687 93.293,168.109 94.284,168.109 94.440 C 168.109 94.595,168.027 94.757,167.926 94.799 C 167.216 95.093,165.082 101.174,164.381 104.897 L 163.867 107.631 150.214 107.631 L 136.560 107.631 136.638 106.150 C 136.863 101.822,138.257 95.094,139.776 91.002 C 141.096 87.446,141.565 86.338,142.761 83.941 C 147.727 73.993,155.008 65.666,164.085 59.551 C 167.451 57.283,172.125 54.822,175.513 53.534 C 176.264 53.248,177.084 52.932,177.335 52.831 C 179.003 52.160,182.838 51.027,184.624 50.676 C 184.875 50.627,185.849 50.419,186.788 50.214 C 189.012 49.729,193.172 49.244,194.761 49.285 L 196.014 49.317 196.072 62.743 M206.036 49.552 C 208.946 49.892,211.638 50.354,213.212 50.785 C 219.963 52.632,224.804 54.565,229.499 57.289 C 243.514 65.421,254.169 78.939,258.316 93.851 C 258.717 95.291,259.188 96.968,259.363 97.577 C 259.538 98.187,259.681 98.966,259.681 99.309 C 259.681 99.652,259.780 100.229,259.900 100.592 C 260.189 101.466,260.808 107.055,260.659 107.444 C 260.563 107.694,258.128 107.738,246.967 107.690 L 233.392 107.631 233.245 106.834 C 233.164 106.395,232.966 105.319,232.805 104.442 C 232.508 102.823,231.809 100.260,231.438 99.431 C 231.325 99.180,230.924 98.217,230.545 97.290 C 226.975 88.554,218.076 80.592,208.998 78.012 C 206.323 77.251,204.059 76.765,203.189 76.765 C 202.704 76.765,202.045 76.665,201.723 76.543 L 201.139 76.321 201.139 62.914 C 201.139 55.540,201.207 49.438,201.291 49.355 C 201.524 49.121,202.798 49.175,206.036 49.552 M196.079 83.656 L 196.144 85.877 198.633 85.877 L 201.122 85.877 201.188 83.656 L 201.253 81.435 201.871 81.364 C 202.649 81.274,206.173 82.033,208.477 82.787 C 218.080 85.928,226.157 95.080,228.140 105.069 C 228.688 107.828,228.766 107.745,225.626 107.745 L 222.992 107.745 223.056 110.308 L 223.121 112.870 225.911 112.934 L 228.702 112.998 228.698 113.959 C 228.673 120.687,223.380 130.360,217.084 135.184 C 215.964 136.043,215.274 136.492,212.966 137.864 C 211.913 138.490,208.037 140.091,207.574 140.091 C 207.342 140.091,207.055 140.180,206.936 140.289 C 206.753 140.457,204.268 140.966,201.990 141.303 C 201.191 141.421,201.153 141.264,201.081 137.585 L 201.025 134.738 198.583 134.673 L 196.140 134.609 196.077 137.863 L 196.014 141.116 195.236 141.190 C 194.465 141.264,190.890 140.647,190.215 140.324 C 190.022 140.231,189.300 139.978,188.610 139.762 C 178.194 136.494,168.565 124.115,168.565 113.991 L 168.565 112.998 171.355 112.934 L 174.146 112.870 174.210 110.308 L 174.275 107.745 171.553 107.745 C 168.394 107.745,168.532 107.874,169.029 105.382 C 170.612 97.450,175.443 90.431,182.499 85.811 C 185.957 83.547,192.266 81.321,194.989 81.404 L 196.014 81.435 196.079 83.656 M197.950 97.039 L 197.950 103.645 198.633 103.645 L 199.317 103.645 199.317 97.039 L 199.317 90.433 198.633 90.433 L 197.950 90.433 197.950 97.039 M178.629 110.308 L 178.702 110.820 185.364 110.880 L 192.027 110.941 192.027 110.368 L 192.027 109.795 185.292 109.795 L 178.556 109.795 178.629 110.308 M205.239 110.364 L 205.239 110.934 211.819 110.934 L 218.398 110.934 218.507 110.364 L 218.616 109.795 211.927 109.795 L 205.239 109.795 205.239 110.364 M163.880 114.294 C 165.560 130.996,178.191 144.077,194.419 145.920 C 195.171 146.005,195.861 146.190,195.953 146.329 C 196.272 146.813,196.161 173.037,195.839 173.304 C 195.512 173.576,189.101 173.031,188.201 172.656 C 187.913 172.536,187.466 172.437,187.207 172.437 C 186.056 172.437,179.790 170.747,177.185 169.733 C 167.406 165.929,160.804 161.584,153.823 154.359 C 150.675 151.101,145.330 144.182,145.330 143.365 C 145.330 143.276,145.189 143.040,145.017 142.843 C 143.462 141.059,139.608 131.889,138.499 127.335 C 138.240 126.270,137.926 125.040,137.802 124.601 C 137.587 123.843,137.322 122.275,136.899 119.248 C 136.794 118.497,136.636 116.780,136.548 115.433 L 136.388 112.984 150.068 112.984 L 163.749 112.984 163.880 114.294 M260.731 115.205 C 260.327 121.022,258.611 129.336,257.170 132.460 C 257.055 132.711,256.745 133.479,256.483 134.169 C 256.220 134.858,255.654 136.157,255.224 137.055 C 254.794 137.954,254.442 138.740,254.442 138.803 C 254.442 139.138,251.222 144.606,249.927 146.469 C 244.365 154.475,236.524 161.551,228.300 165.985 C 227.456 166.440,226.612 166.896,226.424 166.998 C 225.572 167.460,222.804 168.652,220.082 169.730 C 217.091 170.914,211.494 172.332,207.631 172.885 C 203.466 173.481,201.529 173.611,201.337 173.309 C 201.103 172.938,201.079 146.686,201.313 146.326 C 201.405 146.184,202.147 145.995,202.961 145.904 C 205.206 145.655,208.695 144.840,210.364 144.174 C 213.545 142.904,218.075 140.564,218.679 139.878 C 218.741 139.806,219.239 139.445,219.785 139.074 C 225.029 135.515,230.297 127.694,232.218 120.615 C 232.422 119.863,232.684 118.941,232.801 118.565 C 232.918 118.189,233.075 117.010,233.150 115.945 C 233.225 114.880,233.333 113.778,233.390 113.497 L 233.494 112.984 247.190 112.984 L 260.885 112.984 260.731 115.205 M198.111 116.999 C 198.023 117.088,197.950 120.065,197.950 123.614 L 197.950 130.068 198.637 130.068 L 199.324 130.068 199.263 123.519 C 199.204 117.123,199.192 116.969,198.738 116.904 C 198.482 116.867,198.200 116.910,198.111 116.999 " stroke="none" fill="#546484" fill-rule="evenodd"></path><path id="path2" d="M193.793 43.441 C 194.075 43.495,194.536 43.495,194.818 43.441 C 195.100 43.387,194.869 43.342,194.305 43.342 C 193.741 43.342,193.511 43.387,193.793 43.441 M117.384 107.460 C 119.741 107.497,123.534 107.497,125.812 107.460 C 128.090 107.423,126.162 107.392,121.526 107.392 C 116.891 107.392,115.027 107.423,117.384 107.460 M143.565 107.460 C 147.167 107.495,153.061 107.495,156.663 107.460 C 160.265 107.425,157.318 107.396,150.114 107.396 C 142.910 107.396,139.963 107.425,143.565 107.460 M170.216 107.458 C 170.937 107.503,172.116 107.503,172.836 107.458 C 173.556 107.412,172.967 107.375,171.526 107.375 C 170.085 107.375,169.496 107.412,170.216 107.458 M224.203 107.458 C 224.923 107.503,226.102 107.503,226.822 107.458 C 227.543 107.412,226.953 107.375,225.513 107.375 C 224.072 107.375,223.482 107.412,224.203 107.458 M240.604 107.460 C 244.206 107.495,250.100 107.495,253.702 107.460 C 257.304 107.425,254.356 107.396,247.153 107.396 C 239.949 107.396,237.002 107.425,240.604 107.460 M271.256 107.460 C 273.676 107.497,277.572 107.497,279.912 107.460 C 282.253 107.423,280.273 107.393,275.513 107.393 C 270.752 107.393,268.836 107.423,271.256 107.460 M174.346 110.251 C 174.346 111.691,174.383 112.281,174.428 111.560 C 174.473 110.840,174.473 109.661,174.428 108.941 C 174.383 108.220,174.346 108.810,174.346 110.251 M222.863 110.251 C 222.863 111.566,222.901 112.104,222.947 111.446 C 222.993 110.789,222.993 109.712,222.947 109.055 C 222.901 108.397,222.863 108.935,222.863 110.251 " stroke="none" fill="#647c9c" fill-rule="evenodd"></path><path id="path3" d="M204.328 49.627 C 204.328 49.735,204.584 49.774,204.897 49.714 C 205.211 49.654,205.467 49.566,205.467 49.518 C 205.467 49.470,205.211 49.431,204.897 49.431 C 204.584 49.431,204.328 49.519,204.328 49.627 M199.266 96.919 L 199.330 103.611 198.811 103.722 C 198.342 103.822,198.346 103.830,198.861 103.796 L 199.431 103.759 199.491 97.168 C 199.524 93.543,199.473 90.498,199.377 90.402 C 199.281 90.306,199.231 93.239,199.266 96.919 M266.568 106.606 C 266.568 107.044,266.615 107.224,266.672 107.005 C 266.729 106.785,266.729 106.427,266.672 106.207 C 266.615 105.988,266.568 106.167,266.568 106.606 M222.551 110.123 C 222.551 111.431,222.628 112.549,222.722 112.607 C 222.816 112.665,222.893 111.595,222.893 110.229 C 222.893 108.863,222.816 107.745,222.722 107.745 C 222.628 107.745,222.551 108.815,222.551 110.123 M182.062 109.510 C 183.909 109.548,186.933 109.548,188.781 109.510 C 190.629 109.471,189.117 109.440,185.421 109.440 C 181.726 109.440,180.214 109.471,182.062 109.510 M208.599 109.510 C 210.384 109.548,213.306 109.548,215.091 109.510 C 216.876 109.471,215.416 109.440,211.845 109.440 C 208.274 109.440,206.814 109.471,208.599 109.510 M117.027 113.155 C 119.439 113.191,123.386 113.191,125.797 113.155 C 128.209 113.118,126.236 113.088,121.412 113.088 C 116.589 113.088,114.616 113.118,117.027 113.155 M143.467 113.155 C 147.141 113.190,153.086 113.190,156.679 113.155 C 160.272 113.120,157.267 113.091,150.000 113.091 C 142.733 113.091,139.794 113.120,143.467 113.155 M168.652 113.312 C 168.583 113.493,168.574 113.826,168.633 114.053 C 168.704 114.325,168.749 114.255,168.766 113.845 L 168.793 113.226 171.583 113.154 L 174.374 113.083 171.576 113.033 C 169.317 112.994,168.754 113.047,168.652 113.312 M224.326 113.153 C 225.113 113.198,226.344 113.197,227.059 113.152 C 227.775 113.107,227.130 113.071,225.626 113.071 C 224.123 113.071,223.538 113.108,224.326 113.153 M233.564 113.336 C 233.490 113.529,233.493 113.751,233.571 113.829 C 233.649 113.907,233.713 113.801,233.713 113.593 C 233.713 113.247,234.792 113.211,246.868 113.155 L 260.023 113.094 246.861 113.039 C 235.175 112.990,233.684 113.023,233.564 113.336 M271.598 113.155 C 273.955 113.192,277.748 113.192,280.026 113.155 C 282.305 113.117,280.376 113.087,275.740 113.087 C 271.105 113.087,269.241 113.118,271.598 113.155 M260.137 116.046 C 260.137 116.226,260.239 116.437,260.364 116.515 C 260.490 116.592,260.592 116.445,260.592 116.187 C 260.592 115.929,260.490 115.718,260.364 115.718 C 260.239 115.718,260.137 115.865,260.137 116.046 M199.417 123.576 C 199.417 127.210,199.449 128.664,199.487 126.808 C 199.525 124.953,199.525 121.980,199.487 120.202 C 199.448 118.425,199.417 119.943,199.417 123.576 " stroke="none" fill="#687ca4" fill-rule="evenodd"></path><path id="path4" d="M196.004 33.599 C 196.004 38.861,196.034 40.981,196.070 38.310 C 196.107 35.640,196.107 31.334,196.070 28.743 C 196.034 26.152,196.004 28.337,196.004 33.599 M201.243 24.431 C 201.183 24.588,201.161 28.867,201.193 33.941 L 201.253 43.166 201.367 33.656 C 201.429 28.425,201.452 24.146,201.417 24.146 C 201.381 24.146,201.303 24.274,201.243 24.431 M192.483 43.508 C 192.205 43.687,192.235 43.729,192.640 43.732 C 192.915 43.734,193.203 43.633,193.280 43.508 C 193.459 43.218,192.932 43.218,192.483 43.508 M203.872 43.508 C 203.872 43.633,204.206 43.729,204.613 43.720 C 205.233 43.706,205.279 43.672,204.897 43.508 C 204.268 43.238,203.872 43.238,203.872 43.508 M187.358 44.191 C 186.727 44.352,186.718 44.367,187.244 44.389 C 187.557 44.402,187.967 44.313,188.155 44.191 C 188.543 43.941,188.342 43.941,187.358 44.191 M209.112 44.188 C 209.300 44.311,209.701 44.414,210.004 44.416 C 210.735 44.420,210.550 44.291,209.567 44.110 C 209.006 44.008,208.871 44.031,209.112 44.188 M183.827 44.878 C 183.586 45.035,183.722 45.058,184.282 44.956 C 185.265 44.775,185.450 44.646,184.719 44.650 C 184.416 44.652,184.015 44.755,183.827 44.878 M212.092 44.728 C 212.144 44.773,212.546 44.875,212.984 44.956 C 213.545 45.058,213.680 45.035,213.440 44.878 C 213.131 44.675,211.866 44.535,212.092 44.728 M176.196 47.047 C 175.626 47.321,175.607 47.353,176.082 47.237 C 176.727 47.079,177.453 46.709,177.107 46.714 C 176.982 46.716,176.572 46.866,176.196 47.047 M220.273 46.886 C 220.461 47.003,220.871 47.166,221.185 47.250 C 221.580 47.356,221.650 47.338,221.412 47.191 C 221.224 47.075,220.814 46.911,220.501 46.828 C 220.105 46.722,220.036 46.740,220.273 46.886 M193.793 49.363 C 194.075 49.418,194.536 49.418,194.818 49.363 C 195.100 49.309,194.869 49.265,194.305 49.265 C 193.741 49.265,193.511 49.309,193.793 49.363 M195.666 49.353 C 195.822 49.430,195.900 53.945,195.900 62.870 C 195.900 71.795,195.822 76.311,195.666 76.388 C 195.538 76.451,195.563 76.477,195.723 76.445 C 195.955 76.398,196.014 73.641,196.014 62.870 C 196.014 52.099,195.955 49.343,195.723 49.296 C 195.563 49.263,195.538 49.289,195.666 49.353 M201.291 49.355 C 201.080 49.565,201.099 76.258,201.310 76.388 C 201.404 76.447,201.481 70.354,201.481 62.848 C 201.481 55.343,201.472 49.203,201.462 49.203 C 201.451 49.203,201.374 49.271,201.291 49.355 M202.449 49.363 C 202.731 49.418,203.192 49.418,203.474 49.363 C 203.756 49.309,203.525 49.265,202.961 49.265 C 202.397 49.265,202.167 49.309,202.449 49.363 M188.383 49.886 C 187.604 50.050,187.602 50.054,188.269 50.068 C 188.645 50.076,189.157 49.994,189.408 49.886 C 189.956 49.651,189.501 49.651,188.383 49.886 M207.757 49.898 C 208.061 50.091,209.762 50.217,209.548 50.031 C 209.496 49.986,208.997 49.890,208.440 49.819 C 207.785 49.735,207.543 49.763,207.757 49.898 M212.092 50.651 C 212.144 50.696,212.494 50.802,212.870 50.886 C 213.369 50.998,213.461 50.977,213.212 50.808 C 212.904 50.600,211.863 50.454,212.092 50.651 M238.383 56.196 C 238.508 56.314,239.072 56.746,239.636 57.155 L 240.661 57.900 239.863 57.180 C 239.165 56.550,237.788 55.634,238.383 56.196 M152.835 60.991 L 152.050 61.845 152.904 61.060 C 153.699 60.329,153.863 60.137,153.689 60.137 C 153.651 60.137,153.267 60.521,152.835 60.991 M248.292 64.992 C 248.292 65.031,248.625 65.364,249.032 65.732 L 249.772 66.401 249.103 65.661 C 248.480 64.971,248.292 64.816,248.292 64.992 M155.908 66.116 L 155.239 66.856 155.979 66.187 C 156.387 65.819,156.720 65.486,156.720 65.447 C 156.720 65.271,156.532 65.426,155.908 66.116 M242.483 67.426 C 243.605 68.554,244.575 69.476,244.637 69.476 C 244.700 69.476,243.833 68.554,242.711 67.426 C 241.588 66.298,240.619 65.376,240.556 65.376 C 240.494 65.376,241.361 66.298,242.483 67.426 M249.658 66.586 C 249.658 66.625,249.991 66.958,250.399 67.326 L 251.139 67.995 250.470 67.255 C 249.846 66.565,249.658 66.410,249.658 66.586 M153.175 68.850 L 152.506 69.590 153.246 68.921 C 153.653 68.553,153.986 68.220,153.986 68.181 C 153.986 68.005,153.798 68.160,153.175 68.850 M252.063 69.362 C 253.116 70.753,253.438 71.103,253.112 70.501 C 252.976 70.251,252.491 69.636,252.033 69.134 L 251.201 68.223 252.063 69.362 M145.298 68.964 C 144.643 69.755,144.365 70.159,144.478 70.159 C 144.541 70.159,144.866 69.801,145.201 69.362 C 145.822 68.548,145.897 68.241,145.298 68.964 M143.236 71.697 C 142.835 72.164,142.534 72.665,142.654 72.665 C 142.701 72.665,142.966 72.358,143.244 71.982 C 143.793 71.239,143.788 71.054,143.236 71.697 M193.964 76.538 C 193.880 76.673,194.129 76.759,194.577 76.749 C 195.205 76.736,195.254 76.701,194.875 76.538 C 194.257 76.272,194.128 76.272,193.964 76.538 M202.335 76.695 C 202.554 76.752,202.913 76.752,203.132 76.695 C 203.351 76.637,203.172 76.590,202.733 76.590 C 202.295 76.590,202.116 76.637,202.335 76.695 M205.486 77.075 C 205.538 77.120,205.888 77.226,206.264 77.310 C 206.763 77.421,206.855 77.400,206.606 77.231 C 206.298 77.023,205.257 76.878,205.486 77.075 M193.508 81.560 C 193.190 81.703,193.329 81.724,193.964 81.627 C 194.465 81.551,194.917 81.451,194.970 81.405 C 195.165 81.232,193.945 81.361,193.508 81.560 M195.900 83.677 L 196.014 85.991 198.633 85.991 L 201.253 85.991 201.266 83.769 L 201.279 81.548 201.201 83.712 L 201.122 85.877 198.625 85.877 L 196.128 85.877 196.128 83.726 C 196.128 82.544,196.051 81.528,195.957 81.470 C 195.863 81.411,195.837 82.404,195.900 83.677 M188.041 83.038 C 187.469 83.313,187.450 83.344,187.927 83.230 C 188.240 83.154,188.594 83.001,188.713 82.890 C 189.008 82.614,188.846 82.650,188.041 83.038 M208.428 82.877 C 208.616 82.993,209.026 83.157,209.339 83.241 C 209.735 83.347,209.805 83.329,209.567 83.182 C 209.379 83.066,208.969 82.902,208.656 82.818 C 208.260 82.713,208.191 82.731,208.428 82.877 M175.198 85.203 C 174.650 85.699,174.296 86.105,174.412 86.105 C 174.528 86.105,175.023 85.695,175.513 85.194 C 176.647 84.032,176.488 84.037,175.198 85.203 M221.412 84.809 C 221.412 84.849,221.745 85.182,222.153 85.550 L 222.893 86.219 222.224 85.478 C 221.600 84.788,221.412 84.633,221.412 84.809 M141.268 87.004 C 141.135 87.387,141.074 87.699,141.134 87.699 C 141.287 87.699,141.717 86.516,141.604 86.403 C 141.553 86.352,141.402 86.622,141.268 87.004 M172.425 88.098 L 171.640 88.952 172.494 88.167 C 173.289 87.436,173.453 87.244,173.279 87.244 C 173.241 87.244,172.857 87.628,172.425 88.098 M225.039 88.554 C 225.713 89.337,226.310 89.977,226.365 89.977 C 226.516 89.977,224.678 87.816,224.214 87.448 C 223.993 87.273,224.364 87.771,225.039 88.554 M177.221 90.091 C 176.288 91.031,175.575 91.800,175.638 91.800 C 175.700 91.800,176.515 91.031,177.449 90.091 C 178.382 89.151,179.095 88.383,179.032 88.383 C 178.969 88.383,178.154 89.151,177.221 90.091 M218.223 88.445 C 218.223 88.480,219.018 89.274,219.989 90.211 L 221.754 91.913 220.051 90.148 C 218.470 88.508,218.223 88.279,218.223 88.445 M139.206 92.505 C 139.067 92.906,138.959 93.347,138.968 93.485 C 138.977 93.623,139.131 93.335,139.311 92.844 C 139.490 92.354,139.598 91.913,139.549 91.865 C 139.500 91.816,139.346 92.104,139.206 92.505 M131.978 96.912 C 131.909 97.092,131.892 97.425,131.941 97.652 C 131.997 97.909,132.075 97.786,132.149 97.323 C 132.273 96.548,132.192 96.353,131.978 96.912 M265.067 97.267 C 265.247 98.249,265.377 98.434,265.372 97.703 C 265.370 97.400,265.268 96.999,265.145 96.811 C 264.987 96.571,264.964 96.706,265.067 97.267 M137.727 98.073 C 137.649 98.276,137.594 98.614,137.605 98.823 C 137.616 99.032,137.715 98.900,137.825 98.531 C 138.040 97.812,137.964 97.456,137.727 98.073 M231.104 98.690 C 231.189 98.972,231.352 99.303,231.467 99.425 C 231.581 99.548,231.560 99.317,231.419 98.913 C 231.131 98.085,230.864 97.897,231.104 98.690 M265.656 100.228 C 265.656 100.666,265.703 100.846,265.761 100.626 C 265.818 100.407,265.818 100.048,265.761 99.829 C 265.703 99.610,265.656 99.789,265.656 100.228 M131.244 101.519 C 131.224 101.916,131.148 102.428,131.076 102.658 C 130.953 103.052,130.960 103.052,131.204 102.672 C 131.347 102.450,131.422 101.937,131.372 101.533 L 131.280 100.797 131.244 101.519 M259.925 101.614 C 259.934 102.042,260.030 102.597,260.138 102.847 C 260.265 103.140,260.289 102.897,260.204 102.164 C 260.048 100.810,259.902 100.524,259.925 101.614 M265.884 101.822 C 265.884 102.261,265.931 102.440,265.988 102.221 C 266.046 102.002,266.046 101.643,265.988 101.424 C 265.931 101.204,265.884 101.384,265.884 101.822 M137.048 101.870 C 136.971 102.157,136.920 102.751,136.934 103.189 C 136.953 103.798,137.002 103.690,137.140 102.734 C 137.331 101.419,137.285 100.987,137.048 101.870 M227.474 102.961 C 227.551 103.400,227.707 103.912,227.820 104.100 C 228.062 104.505,227.829 103.324,227.528 102.620 C 227.396 102.312,227.379 102.423,227.474 102.961 M232.619 103.303 C 232.619 103.554,232.702 104.015,232.802 104.328 C 232.946 104.779,232.984 104.803,232.984 104.442 C 232.984 104.191,232.902 103.730,232.802 103.417 C 232.657 102.966,232.619 102.942,232.619 103.303 M164.385 103.571 C 164.318 103.799,164.210 104.499,164.146 105.125 C 164.043 106.132,164.065 106.093,164.340 104.784 C 164.630 103.401,164.658 102.635,164.385 103.571 M130.805 105.467 C 130.805 105.905,130.851 106.085,130.909 105.866 C 130.966 105.646,130.966 105.288,130.909 105.068 C 130.851 104.849,130.805 105.028,130.805 105.467 M266.319 106.390 C 266.264 107.782,266.008 107.745,275.710 107.745 C 280.592 107.745,284.531 107.690,284.464 107.623 C 284.398 107.556,280.357 107.479,275.486 107.452 L 266.629 107.403 266.490 106.492 L 266.352 105.581 266.319 106.390 M136.520 107.175 C 136.566 107.625,136.734 107.631,150.228 107.631 C 163.714 107.631,163.890 107.625,163.957 107.175 C 164.019 106.764,164.002 106.758,163.782 107.111 C 163.400 107.726,136.771 107.736,136.591 107.122 C 136.497 106.804,136.482 106.815,136.520 107.175 M233.331 107.175 C 233.377 107.625,233.567 107.632,247.025 107.690 C 254.531 107.722,260.621 107.698,260.559 107.636 C 260.498 107.574,254.388 107.519,246.981 107.514 C 234.449 107.504,233.508 107.476,233.400 107.112 C 233.313 106.818,233.295 106.834,233.331 107.175 M168.698 107.371 C 168.822 107.693,169.224 107.738,171.608 107.696 L 174.374 107.647 171.768 107.574 C 170.310 107.534,169.028 107.390,168.858 107.249 C 168.621 107.053,168.586 107.079,168.698 107.371 M112.756 107.574 C 112.756 107.668,116.748 107.745,121.627 107.745 C 126.505 107.745,130.545 107.668,130.603 107.574 C 130.661 107.480,126.669 107.403,121.732 107.403 C 116.796 107.403,112.756 107.480,112.756 107.574 M225.626 107.517 L 222.893 107.653 225.556 107.699 C 227.137 107.726,228.276 107.652,228.360 107.517 C 228.437 107.392,228.469 107.310,228.430 107.335 C 228.392 107.360,227.130 107.442,225.626 107.517 M181.962 109.738 C 183.880 109.776,186.955 109.776,188.795 109.737 C 190.636 109.699,189.066 109.668,185.308 109.668 C 181.549 109.668,180.043 109.700,181.962 109.738 M205.099 109.896 C 204.657 111.048,204.630 111.043,211.905 111.108 L 218.679 111.169 218.648 110.539 C 218.621 110.002,218.602 109.984,218.518 110.421 L 218.419 110.934 211.829 110.934 L 205.239 110.934 205.239 110.368 L 205.239 109.802 211.902 109.738 L 218.565 109.674 211.895 109.621 C 206.262 109.575,205.205 109.618,205.099 109.896 M178.587 110.991 C 178.588 111.085,181.637 111.140,185.364 111.113 C 192.107 111.065,191.338 110.990,182.972 110.878 C 180.561 110.846,178.587 110.897,178.587 110.991 M136.519 114.351 C 136.519 115.165,136.561 115.498,136.611 115.091 C 136.662 114.684,136.662 114.018,136.611 113.610 C 136.561 113.203,136.519 113.536,136.519 114.351 M260.665 114.351 C 260.665 115.165,260.707 115.498,260.757 115.091 C 260.808 114.684,260.808 114.018,260.757 113.610 C 260.707 113.203,260.665 113.536,260.665 114.351 M233.326 114.579 C 233.326 115.268,233.368 115.550,233.421 115.205 C 233.473 114.860,233.473 114.297,233.421 113.952 C 233.368 113.608,233.326 113.890,233.326 114.579 M163.839 114.920 C 163.841 115.421,163.888 115.600,163.942 115.316 C 163.997 115.033,163.995 114.623,163.938 114.405 C 163.881 114.187,163.836 114.419,163.839 114.920 M266.352 115.604 C 266.354 116.230,266.398 116.459,266.450 116.113 C 266.503 115.767,266.501 115.254,266.447 114.974 C 266.393 114.694,266.350 114.977,266.352 115.604 M130.805 116.856 C 130.805 117.295,130.851 117.474,130.909 117.255 C 130.966 117.036,130.966 116.677,130.909 116.458 C 130.851 116.239,130.805 116.418,130.805 116.856 M164.240 118.242 C 164.242 118.545,164.345 118.946,164.468 119.134 C 164.625 119.375,164.648 119.240,164.546 118.679 C 164.365 117.696,164.236 117.511,164.240 118.242 M169.287 118.337 C 169.283 118.588,169.368 118.998,169.476 119.248 C 169.726 119.829,169.726 119.230,169.476 118.451 C 169.329 117.993,169.292 117.971,169.287 118.337 M232.724 118.622 C 232.443 119.661,232.351 120.369,232.540 120.046 C 232.764 119.661,233.069 118.223,232.925 118.223 C 232.874 118.223,232.784 118.403,232.724 118.622 M136.918 119.495 C 136.927 119.986,137.021 120.592,137.128 120.843 C 137.248 121.126,137.273 120.825,137.194 120.046 C 137.041 118.545,136.896 118.256,136.918 119.495 M131.140 120.387 C 131.212 121.014,131.308 121.569,131.353 121.621 C 131.524 121.819,131.394 120.139,131.206 119.704 C 131.079 119.411,131.055 119.654,131.140 120.387 M260.055 119.866 C 259.978 120.153,259.926 120.695,259.939 121.071 C 259.955 121.542,260.021 121.403,260.152 120.622 C 260.351 119.432,260.293 118.978,260.055 119.866 M265.746 121.307 C 265.668 121.511,265.615 121.951,265.630 122.285 C 265.649 122.740,265.701 122.664,265.834 121.982 C 266.022 121.014,265.981 120.695,265.746 121.307 M137.589 123.823 C 137.591 124.063,137.696 124.413,137.824 124.601 C 137.992 124.851,138.014 124.759,137.902 124.260 C 137.715 123.422,137.584 123.240,137.589 123.823 M259.252 124.640 C 259.237 124.849,259.167 125.207,259.094 125.437 C 258.970 125.832,258.977 125.833,259.224 125.448 C 259.367 125.225,259.438 124.866,259.381 124.651 C 259.289 124.298,259.276 124.297,259.252 124.640 M265.179 124.754 C 265.162 125.025,265.089 125.435,265.017 125.665 C 264.893 126.060,264.900 126.060,265.146 125.677 C 265.289 125.454,265.362 125.044,265.308 124.766 C 265.210 124.260,265.210 124.260,265.179 124.754 M131.894 125.076 C 131.896 125.379,131.998 125.780,132.122 125.968 C 132.279 126.209,132.302 126.073,132.199 125.513 C 132.019 124.530,131.890 124.345,131.894 125.076 M138.968 129.315 C 139.020 129.906,139.376 130.407,139.392 129.911 C 139.401 129.636,139.305 129.349,139.180 129.271 C 139.055 129.194,138.959 129.213,138.968 129.315 M198.235 130.225 C 198.454 130.283,198.813 130.283,199.032 130.225 C 199.251 130.168,199.072 130.121,198.633 130.121 C 198.195 130.121,198.015 130.168,198.235 130.225 M133.844 132.346 C 133.927 132.659,134.091 133.069,134.207 133.257 C 134.354 133.495,134.372 133.425,134.266 133.030 C 134.182 132.716,134.018 132.306,133.902 132.118 C 133.756 131.881,133.738 131.950,133.844 132.346 M218.289 133.946 C 217.761 134.444,217.407 134.852,217.502 134.852 C 217.597 134.852,218.076 134.442,218.565 133.941 C 219.710 132.768,219.533 132.772,218.289 133.946 M196.059 134.541 C 195.971 134.629,195.900 136.113,195.900 137.839 L 195.900 140.978 194.760 141.067 L 193.619 141.156 194.816 141.136 L 196.014 141.116 196.077 137.863 L 196.140 134.609 198.583 134.673 L 201.025 134.738 201.152 137.927 L 201.279 141.116 201.266 137.813 L 201.253 134.510 198.735 134.446 C 197.351 134.411,196.146 134.454,196.059 134.541 M221.284 137.870 L 220.615 138.610 221.355 137.941 C 221.763 137.573,222.096 137.240,222.096 137.201 C 222.096 137.025,221.908 137.180,221.284 137.870 M142.711 138.724 C 142.905 139.100,143.115 139.408,143.178 139.408 C 143.241 139.408,143.133 139.100,142.938 138.724 C 142.744 138.349,142.534 138.041,142.471 138.041 C 142.409 138.041,142.516 138.349,142.711 138.724 M185.194 138.383 C 185.507 138.562,185.866 138.708,185.991 138.708 C 186.116 138.708,185.962 138.562,185.649 138.383 C 185.336 138.204,184.977 138.057,184.852 138.057 C 184.727 138.057,184.880 138.204,185.194 138.383 M190.338 140.309 C 190.453 140.420,190.957 140.571,191.458 140.643 C 192.490 140.793,192.332 140.683,191.022 140.340 C 190.531 140.212,190.224 140.198,190.338 140.309 M202.224 141.163 C 202.507 141.218,202.917 141.216,203.135 141.159 C 203.353 141.102,203.121 141.057,202.620 141.060 C 202.118 141.062,201.940 141.109,202.224 141.163 M185.877 143.867 C 185.877 144.021,187.060 144.451,187.173 144.338 C 187.225 144.286,186.954 144.135,186.572 144.002 C 186.190 143.868,185.877 143.808,185.877 143.867 M191.344 145.548 C 191.532 145.675,191.882 145.780,192.122 145.782 C 192.705 145.787,192.523 145.657,191.686 145.469 C 191.187 145.358,191.094 145.379,191.344 145.548 M205.239 145.558 C 204.770 145.708,204.750 145.744,205.125 145.760 C 205.376 145.770,205.735 145.680,205.923 145.558 C 206.322 145.300,206.045 145.300,205.239 145.558 M196.007 159.795 C 196.007 167.187,196.035 170.178,196.071 166.442 C 196.106 162.705,196.106 156.658,196.070 153.002 C 196.035 149.346,196.007 152.403,196.007 159.795 M201.246 159.795 C 201.246 167.187,201.275 170.178,201.310 166.442 C 201.345 162.705,201.345 156.658,201.310 153.002 C 201.274 149.346,201.246 152.403,201.246 159.795 M248.163 148.672 C 247.813 149.132,247.642 149.437,247.784 149.349 C 248.076 149.168,249.062 147.836,248.904 147.836 C 248.847 147.836,248.514 148.212,248.163 148.672 M143.052 150.683 C 143.440 151.247,143.809 151.708,143.872 151.708 C 143.934 151.708,143.668 151.247,143.280 150.683 C 142.892 150.120,142.524 149.658,142.461 149.658 C 142.398 149.658,142.665 150.120,143.052 150.683 M244.191 153.417 C 243.638 153.981,243.237 154.442,243.299 154.442 C 243.362 154.442,243.866 153.981,244.419 153.417 C 244.972 152.853,245.374 152.392,245.311 152.392 C 245.249 152.392,244.745 152.853,244.191 153.417 M145.558 153.909 C 145.558 154.033,145.840 154.383,146.185 154.687 L 146.811 155.239 146.241 154.556 C 145.928 154.180,145.646 153.830,145.615 153.778 C 145.584 153.725,145.558 153.784,145.558 153.909 M240.881 156.777 L 239.522 158.200 240.945 156.841 C 242.268 155.578,242.473 155.353,242.305 155.353 C 242.270 155.353,241.629 155.994,240.881 156.777 M249.418 156.435 L 248.633 157.289 249.487 156.504 C 250.283 155.774,250.446 155.581,250.272 155.581 C 250.234 155.581,249.850 155.965,249.418 156.435 M156.948 157.517 C 157.373 157.956,157.772 158.314,157.834 158.314 C 157.897 158.314,157.600 157.956,157.175 157.517 C 156.750 157.079,156.351 156.720,156.289 156.720 C 156.226 156.720,156.523 157.079,156.948 157.517 M150.342 159.339 C 151.527 160.530,152.548 161.503,152.611 161.503 C 152.673 161.503,151.755 160.530,150.569 159.339 C 149.384 158.149,148.363 157.175,148.301 157.175 C 148.238 157.175,149.156 158.149,150.342 159.339 M238.596 158.827 L 237.927 159.567 238.667 158.898 C 239.358 158.275,239.512 158.087,239.336 158.087 C 239.297 158.087,238.964 158.420,238.596 158.827 M246.576 159.510 L 245.216 160.934 246.640 159.574 C 247.423 158.827,248.064 158.186,248.064 158.151 C 248.064 157.982,247.839 158.188,246.576 159.510 M159.763 159.857 C 159.943 160.149,161.276 161.135,161.276 160.976 C 161.276 160.920,160.899 160.587,160.439 160.236 C 159.979 159.885,159.675 159.715,159.763 159.857 M243.736 162.073 C 243.182 162.637,242.781 163.098,242.844 163.098 C 242.906 163.098,243.410 162.637,243.964 162.073 C 244.517 161.509,244.918 161.048,244.856 161.048 C 244.793 161.048,244.289 161.509,243.736 162.073 M237.699 166.876 L 237.016 167.464 237.756 166.974 C 238.163 166.704,238.497 166.440,238.497 166.385 C 238.497 166.215,238.400 166.274,237.699 166.876 M182.005 171.271 C 182.192 171.377,182.705 171.527,183.144 171.605 C 183.623 171.690,183.805 171.670,183.599 171.554 C 183.411 171.448,182.899 171.297,182.460 171.220 C 181.980 171.135,181.799 171.155,182.005 171.271 M208.087 172.665 L 207.175 172.828 207.973 172.857 C 208.411 172.873,208.924 172.787,209.112 172.665 C 209.484 172.424,209.432 172.424,208.087 172.665 M188.784 172.826 C 189.067 172.881,189.477 172.879,189.695 172.822 C 189.913 172.765,189.681 172.720,189.180 172.723 C 188.679 172.725,188.501 172.772,188.784 172.826 M190.490 173.050 C 190.709 173.107,191.068 173.107,191.287 173.050 C 191.506 172.993,191.327 172.946,190.888 172.946 C 190.450 172.946,190.271 172.993,190.490 173.050 M193.280 173.121 C 192.605 173.293,192.607 173.295,193.464 173.322 C 193.991 173.338,194.277 173.259,194.191 173.121 C 194.114 172.995,194.031 172.905,194.007 172.920 C 193.983 172.935,193.656 173.025,193.280 173.121 M205.979 173.050 C 206.199 173.107,206.558 173.107,206.777 173.050 C 206.996 172.993,206.817 172.946,206.378 172.946 C 205.940 172.946,205.760 172.993,205.979 173.050 M203.363 173.282 C 203.646 173.336,204.056 173.334,204.274 173.277 C 204.492 173.220,204.260 173.176,203.759 173.178 C 203.257 173.181,203.079 173.227,203.363 173.282 M201.651 173.506 C 201.871 173.563,202.229 173.563,202.449 173.506 C 202.668 173.448,202.489 173.401,202.050 173.401 C 201.612 173.401,201.432 173.448,201.651 173.506 M215.522 177.027 C 215.101 177.148,214.801 177.291,214.855 177.345 C 214.909 177.399,215.407 177.301,215.962 177.127 C 217.094 176.772,216.712 176.684,215.522 177.027 M181.112 177.075 C 181.165 177.120,181.515 177.226,181.891 177.310 C 182.390 177.421,182.482 177.400,182.232 177.231 C 181.925 177.023,180.884 176.878,181.112 177.075 M184.624 177.904 C 184.875 178.012,185.233 178.100,185.421 178.100 C 185.637 178.100,185.595 178.028,185.308 177.904 C 185.057 177.797,184.698 177.709,184.510 177.709 C 184.295 177.709,184.337 177.781,184.624 177.904 M211.959 177.904 C 211.672 178.028,211.630 178.100,211.845 178.100 C 212.033 178.100,212.392 178.012,212.642 177.904 C 212.930 177.781,212.972 177.709,212.756 177.709 C 212.568 177.709,212.210 177.797,211.959 177.904 M188.497 178.590 C 188.933 178.775,190.838 178.903,190.642 178.734 C 190.589 178.688,189.983 178.594,189.294 178.524 C 188.514 178.445,188.213 178.469,188.497 178.590 M207.631 178.588 L 206.720 178.751 207.517 178.767 C 207.956 178.776,208.519 178.695,208.770 178.588 C 209.307 178.357,208.919 178.357,207.631 178.588 M191.401 178.973 C 191.620 179.030,191.979 179.030,192.198 178.973 C 192.417 178.915,192.238 178.868,191.800 178.868 C 191.361 178.868,191.182 178.915,191.401 178.973 M205.296 178.973 C 205.515 179.030,205.874 179.030,206.093 178.973 C 206.313 178.915,206.133 178.868,205.695 178.868 C 205.256 178.868,205.077 178.915,205.296 178.973 M193.907 179.206 C 194.251 179.259,194.815 179.259,195.159 179.206 C 195.504 179.154,195.222 179.112,194.533 179.112 C 193.844 179.112,193.562 179.154,193.907 179.206 M201.879 179.206 C 202.224 179.259,202.788 179.259,203.132 179.206 C 203.477 179.154,203.195 179.112,202.506 179.112 C 201.817 179.112,201.535 179.154,201.879 179.206 M196.003 187.813 C 196.003 192.449,196.033 194.313,196.070 191.955 C 196.107 189.598,196.107 185.805,196.070 183.527 C 196.033 181.249,196.003 183.178,196.003 187.813 M201.242 187.927 C 201.242 192.625,201.272 194.547,201.309 192.198 C 201.347 189.849,201.347 186.005,201.309 183.656 C 201.272 181.307,201.242 183.229,201.242 187.927 " stroke="none" fill="#64749a" fill-rule="evenodd"></path></g></svg>